<?xml version="1.0" encoding="UTF-8" standalone="no"?>
<!-- Created with Inkscape (http://www.inkscape.org/) -->

<svg
   width="166.74416mm"
   height="162.52483mm"
   viewBox="0 0 166.74416 162.52483"
   version="1.1"
   id="svg5"
   inkscape:version="1.1.2 (0a00cf5339, 2022-02-04)"
   sodipodi:docname="github_icon.svg"
   xmlns:inkscape="http://www.inkscape.org/namespaces/inkscape"
   xmlns:sodipodi="http://sodipodi.sourceforge.net/DTD/sodipodi-0.dtd"
   xmlns="http://www.w3.org/2000/svg"
   xmlns:svg="http://www.w3.org/2000/svg">
  <sodipodi:namedview
     id="namedview7"
     pagecolor="#ffffff"
     bordercolor="#666666"
     borderopacity="1.0"
     inkscape:pageshadow="2"
     inkscape:pageopacity="0.0"
     inkscape:pagecheckerboard="0"
     inkscape:document-units="mm"
     showgrid="false"
     fit-margin-top="0"
     fit-margin-left="0"
     fit-margin-right="0"
     fit-margin-bottom="0"
     inkscape:zoom="0.54876543"
     inkscape:cx="-249.65129"
     inkscape:cy="270.60742"
     inkscape:window-width="1440"
     inkscape:window-height="827"
     inkscape:window-x="0"
     inkscape:window-y="0"
     inkscape:window-maximized="1"
     inkscape:current-layer="layer1" />
  <defs
     id="defs2" />
  <g
     inkscape:label="Camada 1"
     inkscape:groupmode="layer"
     id="layer1"
     transform="translate(-4.6780279,-21.594495)">
    <path
       d="m 61.918394,184.11932 c 2.577285,-1.10921 4.382471,-3.67199 4.382471,-6.65527 v -19.57431 c 0,-0.7141 0.058,-1.4572 0.14862,-2.21117 -0.05075,0.0145 -0.09787,0.0254 -0.14862,0.0362 0,0 -10.874618,0 -13.049542,0 -5.437309,0 -10.149643,-2.17493 -12.324567,-6.52477 -2.537411,-4.71234 -3.624873,-12.68706 -10.149644,-17.03691 -1.087462,-0.72497 -0.362487,-1.81243 1.812436,-1.81243 2.174924,0.36249 6.887259,3.26238 9.787157,7.24974 3.262386,3.98736 6.524771,7.24975 12.324568,7.24975 9.015058,0 13.847014,-0.45311 16.754162,-2.0118 3.385631,-5.03495 8.072591,-8.86282 12.969794,-8.86282 v -0.0906 C 63.87945,133.2152 50.753786,126.38594 44.642251,115.84119 c -13.285159,0.15224 -24.852128,1.46807 -31.453022,2.56278 -0.210242,-1.18533 -0.391486,-2.37791 -0.547356,-3.57775 6.513897,-1.07296 17.555259,-2.34529 30.249564,-2.58816 -0.405986,-1.00046 -0.757598,-2.0263 -1.054838,-3.07751 -12.726928,-0.64523 -23.710293,-0.14137 -29.676834,0.35161 -0.0725,-1.20346 -0.170369,-2.40329 -0.184868,-3.62125 5.977415,-0.48936 16.66354,-0.97871 29.06423,-0.40236 -0.286365,-1.81244 -0.471234,-3.66475 -0.471234,-5.593178 0,-6.162284 2.174924,-12.687055 6.162284,-18.124364 -1.812436,-6.162284 -4.349847,-19.211826 0.724975,-23.924161 9.787156,0 16.674415,4.712335 19.9368,7.612233 6.158659,-2.541035 13.045917,-3.990985 20.65815,-3.990985 7.612233,0 14.499488,1.44995 20.299288,3.98736 3.26239,-2.899898 10.14964,-7.612232 19.9368,-7.612232 5.43731,5.074822 2.53741,18.124364 0.72497,23.92416 3.98737,5.437309 6.16229,11.599593 5.7998,18.124364 0,1.754443 -0.16312,3.447253 -0.39873,5.107443 12.68343,-0.62348 23.65954,-0.12324 29.73845,0.36974 -0.007,1.22158 -0.11962,2.41417 -0.18487,3.62125 -6.05716,-0.50023 -17.30876,-1.01497 -30.30031,-0.32262 -0.32261,1.21796 -0.7141,2.40329 -1.17808,3.55238 12.8538,0.16674 24.15978,1.41007 30.98541,2.49754 -0.15587,1.20345 -0.33711,2.39604 -0.54736,3.57775 -6.93075,-1.10921 -18.74421,-2.40692 -32.18524,-2.47217 -6.03541,10.43239 -18.92184,17.23627 -39.065255,18.03012 v 0.11237 c 9.424665,0 18.124365,14.13701 18.124365,23.92416 v 19.57431 c 0,2.98328 1.80519,5.54606 4.38247,6.65527 33.20746,-10.99061 57.24037,-42.30951 57.24037,-79.15272 0,-45.970638 -37.39782,-83.372075 -83.372078,-83.372075 -45.974261,0 -83.3720741,37.401437 -83.3720741,83.372075 0,36.84321 24.0329071,68.16211 57.2403661,79.15272 z"
       id="path9"
       style="fill:#ffffff;stroke-width:3.62487" />
  </g>
</svg>
