<?xml version="1.0" encoding="UTF-8" standalone="no"?>
<!-- Created with Inkscape (http://www.inkscape.org/) -->

<svg
   xmlns:dc="http://purl.org/dc/elements/1.1/"
   xmlns:cc="http://creativecommons.org/ns#"
   xmlns:rdf="http://www.w3.org/1999/02/22-rdf-syntax-ns#"
   xmlns:svg="http://www.w3.org/2000/svg"
   xmlns="http://www.w3.org/2000/svg"
   xmlns:sodipodi="http://sodipodi.sourceforge.net/DTD/sodipodi-0.dtd"
   xmlns:inkscape="http://www.inkscape.org/namespaces/inkscape"
   width="210mm"
   height="297mm"
   viewBox="0 0 210 297"
   version="1.1"
   id="svg8"
   inkscape:version="0.92.5 (2060ec1f9f, 2020-04-08)"
   sodipodi:docname="professora.svg">
  <defs
     id="defs2">
    <clipPath
       id="clipPath3903"
       clipPathUnits="userSpaceOnUse">
      <path
         inkscape:connector-curvature="0"
         id="path3901"
         d="m 3006.01,3079.96 c 0,-315.58 -255.82,-571.41 -571.4,-571.41 -315.58,0 -571.4,255.83 -571.4,571.41 0,315.57 255.82,571.39 571.4,571.39 315.58,0 571.4,-255.82 571.4,-571.39" />
    </clipPath>
  </defs>
  <sodipodi:namedview
     id="base"
     pagecolor="#ffffff"
     bordercolor="#666666"
     borderopacity="1.0"
     inkscape:pageopacity="0.0"
     inkscape:pageshadow="2"
     inkscape:zoom="0.49497475"
     inkscape:cx="285.63566"
     inkscape:cy="408.42297"
     inkscape:document-units="mm"
     inkscape:current-layer="layer1"
     showgrid="false"
     inkscape:window-width="1440"
     inkscape:window-height="829"
     inkscape:window-x="0"
     inkscape:window-y="0"
     inkscape:window-maximized="1" />
  <metadata
     id="metadata5">
    <rdf:RDF>
      <cc:Work
         rdf:about="">
        <dc:format>image/svg+xml</dc:format>
        <dc:type
           rdf:resource="http://purl.org/dc/dcmitype/StillImage" />
        <dc:title />
      </cc:Work>
    </rdf:RDF>
  </metadata>
  <g
     inkscape:label="Camada 1"
     inkscape:groupmode="layer"
     id="layer1">
    <g
       id="g900"
       inkscape:export-xdpi="150"
       inkscape:export-ydpi="150">
      <path
         d="m 28.049665,226.8619 h 19.32004 c 0.436454,0 0.78925,-0.35357 0.78925,-0.78925 0,-0.43653 -0.352796,-0.78923 -0.78925,-0.78923 h -19.32004 c -0.435665,0 -0.789248,0.3527 -0.789248,0.78923 0,0.43568 0.353583,0.78925 0.789248,0.78925"
         style="fill:#fef3b6;fill-opacity:1;fill-rule:nonzero;stroke:none;stroke-width:0.07892495"
         id="path3791"
         inkscape:connector-curvature="0" />
      <path
         d="m 159.0201,113.69607 c 0,-5.37793 -1.53824,-10.38889 -4.19407,-14.631884 -3.29354,-5.260361 -5.05989,-11.404657 -4.01885,-17.523717 0.33858,-1.986537 0.51615,-4.051221 0.51615,-6.17036 0,-7.37158 -2.16569,-14.07626 -5.7102,-19.134554 -1.86027,-2.654242 -3.28407,-5.614718 -3.86654,-8.804087 -3.83656,-21.009028 -22.19291,-36.943184 -44.310848,-36.943184 -21.718563,0 -39.815265,15.361959 -44.095365,35.808254 -0.769517,3.674738 -2.430887,7.065368 -4.55397,10.161578 -3.449808,5.032252 -5.550001,11.650127 -5.550001,18.911993 0,2.657419 0.28334,5.226423 0.812137,7.66363 1.259643,5.808083 0.131795,11.758231 -2.822356,16.914404 -2.321184,4.051217 -3.648701,8.744087 -3.648701,13.747927 0,4.74577 1.203605,9.20265 3.312479,13.10075 1.987332,3.67317 2.556381,7.90514 1.930506,12.0337 -0.212314,1.40408 -0.320436,2.84287 -0.313333,4.30929 0.0671,14.65242 12.034477,27.02943 26.678212,27.55903 15.771567,0.57141 43.07566,1.48772 57.95064,2.03862 15.78184,0.58327 28.75946,-12.03684 28.75946,-27.68845 0,-2.22252 -0.26359,-4.38269 -0.76004,-6.45212 -1.08284,-4.51449 -0.55246,-9.18211 1.38197,-13.40225 1.60614,-3.5011 2.50272,-7.39368 2.50272,-11.49857"
         style="fill:#431715;fill-opacity:1;fill-rule:nonzero;stroke:none;stroke-width:0.07892495"
         id="path3849"
         inkscape:connector-curvature="0" />
      <path
         d="m 91.773684,131.43682 c 2.850761,3.17042 4.97462,6.99986 6.132461,11.22865 -0.07025,-5.64785 -1.853153,-10.86322 -4.825464,-15.20962 -0.348071,1.36619 -0.764802,2.70397 -1.306997,3.98097"
         style="fill:#4e2219;fill-opacity:1;fill-rule:nonzero;stroke:none;stroke-width:0.07892495"
         id="path3851"
         inkscape:connector-curvature="0" />
      <path
         d="m 155.84258,144.15874 c -0.0331,-1.05365 -0.11991,-2.09229 -0.26914,-3.112 0.0112,1.03785 0.0955,2.07571 0.26914,3.112"
         style="fill:#4e2219;fill-opacity:1;fill-rule:nonzero;stroke:none;stroke-width:0.07892495"
         id="path3855"
         inkscape:connector-curvature="0" />
      <path
         d="m 101.45777,151.45376 c 0.12305,-6.63758 2.59189,-12.69507 6.59733,-17.4061 -0.92894,-1.67241 -1.64795,-3.46954 -2.21936,-5.33059 -3.26197,4.45059 -5.24141,9.8972 -5.35113,15.81104 -0.049,2.66767 0.31176,5.26193 0.9992,7.73623 -0.002,-0.27151 -0.0316,-0.53828 -0.026,-0.81058"
         style="fill:#4e2219;fill-opacity:1;fill-rule:nonzero;stroke:none;stroke-width:0.07892495"
         id="path3857"
         inkscape:connector-curvature="0" />
      <path
         d="m 43.480283,150.0647 c -0.0072,-1.46485 0.101034,-2.90445 0.313332,-4.30852 0.479075,-3.16409 0.241511,-6.38265 -0.782936,-9.36998 -0.02841,0.8153 -0.0671,1.6314 -0.19021,2.44432 -0.212315,1.40408 -0.320436,2.84287 -0.313333,4.30851 0.01096,2.393 0.368579,4.71499 0.973934,6.9446 l -7.89e-4,-0.0179"
         style="fill:#4e2219;fill-opacity:1;fill-rule:nonzero;stroke:none;stroke-width:0.07892495"
         id="path3863"
         inkscape:connector-curvature="0" />
      <path
         d="m 136.66935,112.60217 c 0,35.87141 -17.69972,64.95129 -39.532727,64.95129 -21.83222,0 -39.53114,-29.07988 -39.53114,-64.95129 0,-35.872175 17.69892,-64.951273 39.53114,-64.951273 21.833007,0 39.532727,29.079098 39.532727,64.951273"
         style="fill:#2e1411;fill-opacity:1;fill-rule:nonzero;stroke:none;stroke-width:0.07892495"
         id="path3865"
         inkscape:connector-curvature="0" />
      <path
         d="m 120.92066,136.77926 -0.55168,-1.20202 H 72.377077 c -8.864063,16.90572 3.397718,37.17917 22.486507,37.17917 h 2.980209 c 18.503947,0 30.792557,-19.15825 23.076867,-35.97715"
         style="fill:#a2442e;fill-opacity:1;fill-rule:nonzero;stroke:none;stroke-width:0.07892495"
         id="path3867"
         inkscape:connector-curvature="0" />
      <path
         d="m 41.554514,258.81239 15.855235,-52.39134 h 79.490841 l 14.36354,53.21104 c -10.26496,33.98432 -92.073046,29.98384 -109.709616,-0.8197"
         style="fill:#e38a2c;fill-opacity:1;fill-rule:nonzero;stroke:none;stroke-width:0.07892495"
         id="path3869"
         inkscape:connector-curvature="0" />
      <path
         d="m 96.258192,196.76616 c -0.0962,-0.28729 -0.213881,-0.56352 -0.320441,-0.84528 h 0.640881 c -0.106493,0.28176 -0.224955,0.55799 -0.32044,0.84528"
         style="fill:#fcd572;fill-opacity:1;fill-rule:nonzero;stroke:none;stroke-width:0.07892495"
         id="path3871"
         inkscape:connector-curvature="0" />
      <path
         d="m 143.74259,268.4054 -5.68338,-51.48969 -1.15862,-10.49466 H 57.409749 l -0.965254,12.94291 c 4.263527,4.67085 10.320228,7.68728 16.952292,7.81183 4.826254,0.0915 9.326557,-1.265 13.100763,-3.66512 5.990396,-3.81049 13.491423,-3.85627 19.47314,-0.0309 0.11119,0.0702 0.22415,0.14117 0.33623,0.21097 14.98074,9.2237 25.4304,24.25829 27.36012,41.74569 l 0.32753,2.96891 c 0.35597,3.22116 -2.1657,6.03564 -5.40478,6.03564 h 9.74644 c 3.24067,0 5.76152,-2.81448 5.40636,-6.03564"
         style="fill:#d5731b;fill-opacity:1;fill-rule:nonzero;stroke:none;stroke-width:0.07892495"
         id="path3873"
         inkscape:connector-curvature="0" />
      <path
         d="m 142.17831,168.96802 16.21355,14.18913 18.93725,-20.70991 c -5.02357,-5.08908 -13.52695,-12.72114 -21.68938,-19.79123 -5.26112,-4.55791 -11.98001,-7.07958 -18.9404,-7.07958 l -18.47316,8.1e-4 h -5.23985 l 0.0112,0.12707 c 0.40331,9.01244 -7.95879,16.68791 -16.687884,16.68791 -9.354985,0 -16.28301,-7.64625 -16.687884,-16.68791 l 0.0022,-0.12707 h -4.09225 l -19.096683,-8.1e-4 c -7.763847,0 -14.991794,3.98019 -19.095102,10.57044 -5.803352,9.32102 -12.154443,20.54415 -16.125157,30.64733 l 28.046771,8.6052 c 1.026814,-2.29592 2.060729,-4.64396 3.076493,-6.9746 v 5.91936 c 0,2.71581 -0.52485,5.38507 -1.256485,8.00063 -0.662179,2.37485 -0.966041,4.89808 -0.835026,7.51445 0.607723,12.21049 10.927161,22.21264 23.150269,22.44325 4.909121,0.0937 9.482044,-1.31346 13.294127,-3.79013 5.891733,-3.82864 13.360411,-3.69132 19.279771,0.094 4.16172,2.66055 9.21212,4.05201 14.61139,3.62494 10.63907,-0.84047 19.55681,-9.09522 21.37602,-19.61039 0.4696,-2.71423 0.43803,-5.33771 0.0112,-7.827 -0.73165,-4.26194 -1.11994,-8.57204 -0.78767,-12.88291 l 0.99761,-12.9429"
         style="fill:#e38a2c;fill-opacity:1;fill-rule:nonzero;stroke:none;stroke-width:0.07892495"
         id="path3877"
         inkscape:connector-curvature="0" />
      <path
         d="m 107.2627,134.25129 c 0,5.96357 -4.83415,10.79772 -10.79772,10.79772 -5.962789,0 -10.797738,-4.83415 -10.797738,-10.79772 v -12.1418 H 107.2627 v 12.1418"
         style="fill:#a2442e;fill-opacity:1;fill-rule:nonzero;stroke:none;stroke-width:0.07892495"
         id="path3881"
         inkscape:connector-curvature="0" />
      <path
         d="m 99.360733,130.25215 h 0.934477 c 3.84837,0 6.96749,-3.12068 6.96749,-6.96827 v -3.6116 H 85.667242 v 17.01622 c 0,4.27378 2.504302,7.93353 6.106442,9.6833 v -8.53338 c 0,-4.19011 3.396917,-7.58627 7.587049,-7.58627"
         style="fill:#9a351f;fill-opacity:1;fill-rule:nonzero;stroke:none;stroke-width:0.07892495"
         id="path3883"
         inkscape:connector-curvature="0" />
      <path
         d="m 116.34458,138.49272 h -4.09225 l 0.002,0.12708 c -0.12149,3.51612 -1.73241,6.32585 -3.68738,8.45998 -3.09308,3.37955 -7.54917,5.18378 -12.131561,5.18378 h -1.259635 c -4.618698,0 -9.121373,-1.82 -12.202592,-5.26113 -1.857896,-2.07414 -3.31405,-4.82942 -3.351144,-8.38263 l 0.0022,-0.12708 h -4.09225 -5.57526 v 9.18529 c 0,9.27684 7.519176,16.7968 16.796014,16.7968 4.893364,0 8.881428,-3.83023 9.158466,-8.65413 h 0.05369 c 0.277015,4.8239 4.265102,8.65413 9.159232,8.65413 9.27605,0 16.79603,-7.51996 16.79603,-16.7968 v -9.18529 h -5.57528"
         style="fill:#d5731b;fill-opacity:1;fill-rule:nonzero;stroke:none;stroke-width:0.07892495"
         id="path3913"
         inkscape:connector-curvature="0" />
      <path
         d="m 95.937751,152.37325 c -9.163969,-0.20203 -15.916795,-7.74963 -16.316143,-16.66896 l 0.0022,-0.12707 h -4.09225 -5.57526 v 9.18448 c 0,9.27684 7.519176,16.7976 16.796014,16.7976 5.073306,0 9.18529,-4.11277 9.18529,-9.18607"
         style="fill:#ffffff;fill-opacity:1;fill-rule:nonzero;stroke:none;stroke-width:0.07892495"
         id="path3915"
         inkscape:connector-curvature="0" />
      <path
         d="m 95.937751,152.37325 c 9.164779,-0.20203 15.916799,-7.74963 16.316169,-16.66896 l -0.002,-0.12707 h 4.09225 5.57528 v 9.18448 c 0,9.27684 -7.51998,16.7976 -16.79604,16.7976 -5.07328,0 -9.186069,-4.11277 -9.186069,-9.18607"
         style="fill:#ffffff;fill-opacity:1;fill-rule:nonzero;stroke:none;stroke-width:0.07892495"
         id="path3917"
         inkscape:connector-curvature="0" />
      <path
         d="M 171.06483,274.36675 96.208458,289.42319 76.086548,189.3859 150.94291,174.32858 c 2.19413,-0.4404 4.32983,0.97947 4.77182,3.17438 l 18.52289,92.09191 c 0.44199,2.1942 -0.97947,4.3307 -3.17279,4.77188"
         style="fill:#5388ce;fill-opacity:1;fill-rule:nonzero;stroke:none;stroke-width:0.07892495"
         id="path3963"
         inkscape:connector-curvature="0" />
      <path
         d="m 166.52349,275.28237 -9.55859,1.92262 -20.12192,-100.03746 9.99426,-2.01023 c 2.01416,-0.40568 3.97703,0.89976 4.38112,2.91392 l 18.5671,92.30581 c 0.45383,2.25584 -1.00707,4.45151 -3.26197,4.90534"
         style="fill:#ead7c4;fill-opacity:1;fill-rule:nonzero;stroke:none;stroke-width:0.07892495"
         id="path3965"
         inkscape:connector-curvature="0" />
      <path
         d="m 166.69397,269.51129 c -2.19489,0.44024 -4.33139,-0.98041 -4.77338,-3.17514 l -17.26482,-85.83483 c -0.52329,-2.60375 -3.05914,-4.29036 -5.66287,-3.76631 l -2.14992,0.43252 20.12192,100.03746 8.9272,-1.79651 c 2.60372,-0.52318 4.29036,-3.05833 3.76629,-5.6619 l -0.16019,-0.79944 -2.80421,0.56415"
         style="fill:#cfb8a5;fill-opacity:1;fill-rule:nonzero;stroke:none;stroke-width:0.07892495"
         id="path3967"
         inkscape:connector-curvature="0" />
      <path
         d="m 156.17408,232.06204 8.04402,39.79419 0.95262,-0.19263 -8.04403,-39.79396"
         style="fill:#cfb8a5;fill-opacity:1;fill-rule:nonzero;stroke:none;stroke-width:0.07892495"
         id="path3969"
         inkscape:connector-curvature="0" />
      <path
         d="m 154.58136,219.28345 -8.10085,-40.07571 c -0.33859,-1.67401 -1.59981,-2.91629 -3.14279,-3.34642 l -5.91306,1.1886 0.0962,0.47593 3.97232,-0.80268 c 1.85078,-0.37411 3.66053,0.82635 4.03464,2.67713 l 8.10086,40.07573 0.95261,-0.19263"
         style="fill:#cfb8a5;fill-opacity:1;fill-rule:nonzero;stroke:none;stroke-width:0.07892495"
         id="path3971"
         inkscape:connector-curvature="0" />
      <path
         d="m 151.81268,200.68162 14.31066,70.78922 0.95262,-0.1924 L 152.7653,200.489"
         style="fill:#cfb8a5;fill-opacity:1;fill-rule:nonzero;stroke:none;stroke-width:0.07892495"
         id="path3973"
         inkscape:connector-curvature="0" />
      <path
         d="m 166.47298,263.38507 1.55562,7.7007 0.95262,-0.19263 -1.5556,-7.70038"
         style="fill:#cfb8a5;fill-opacity:1;fill-rule:nonzero;stroke:none;stroke-width:0.07892495"
         id="path3975"
         inkscape:connector-curvature="0" />
      <path
         d="m 147.0764,175.20939 c -0.30308,-0.002 -0.61169,0.0228 -0.92108,0.0852 l -3.53898,0.71113 0.079,0.4104 2.17831,-0.41908 c 2.08679,-0.40096 4.12778,0.9676 4.54923,3.05121 l 13.36043,66.08781 0.95262,-0.19262 -13.36041,-66.08772 c -0.3599,-1.78056 -1.6748,-3.12306 -3.29906,-3.64635"
         style="fill:#cfb8a5;fill-opacity:1;fill-rule:nonzero;stroke:none;stroke-width:0.07892495"
         id="path3977"
         inkscape:connector-curvature="0" />
      <path
         d="M 157.70601,277.05415 95.25584,289.61593 75.133925,189.57767 137.58487,177.01677 c 2.19333,-0.44119 4.32983,0.98024 4.77179,3.17357 l 18.5237,92.09287 c 0.4404,2.19388 -0.98025,4.32982 -3.17435,4.77094"
         style="fill:#69b9ea;fill-opacity:1;fill-rule:nonzero;stroke:none;stroke-width:0.07892495"
         id="path3979"
         inkscape:connector-curvature="0" />
      <path
         d="m 121.00984,273.83489 c -7.94459,1.59822 -15.6816,-3.54793 -17.27903,-11.49251 l -15.178845,-75.46235 -13.41804,2.69764 20.121915,100.03826 61.70827,-12.41191 c 2.60451,-0.52414 4.28956,-3.05896 3.76629,-5.66349 l -1.10099,-5.47352 -38.61957,7.76788"
         style="fill:#5388ce;fill-opacity:1;fill-rule:nonzero;stroke:none;stroke-width:0.07892495"
         id="path3981"
         inkscape:connector-curvature="0" />
      <path
         d="m 73.180533,200.89 9.284722,-1.86736 c 0.789255,-0.15862 1.300688,-0.92738 1.142046,-1.71742 -0.158621,-0.78925 -0.92736,-1.29988 -1.716614,-1.14126 l -9.284729,1.86738 c -0.789248,0.15862 -1.300682,0.92736 -1.142043,1.71662 0.158643,0.78925 0.927368,1.30068 1.716618,1.14204"
         style="fill:#cfb8a5;fill-opacity:1;fill-rule:nonzero;stroke:none;stroke-width:0.07892495"
         id="path3983"
         inkscape:connector-curvature="0" />
      <path
         d="m 74.839536,209.13607 9.284724,-1.86735 c 0.789255,-0.15863 1.300688,-0.92739 1.141262,-1.71662 -0.15862,-0.78925 -0.927359,-1.30069 -1.716613,-1.14204 l -9.283949,1.86736 c -0.790037,0.15862 -1.300683,0.92736 -1.142043,1.71661 0.158643,0.79004 0.927369,1.30069 1.716619,1.14204"
         style="fill:#cfb8a5;fill-opacity:1;fill-rule:nonzero;stroke:none;stroke-width:0.07892495"
         id="path3985"
         inkscape:connector-curvature="0" />
      <path
         d="m 76.498536,217.38215 9.283946,-1.86736 c 0.789255,-0.15862 1.300688,-0.92736 1.142045,-1.71661 -0.15862,-0.78926 -0.927381,-1.30069 -1.716614,-1.14205 l -9.28474,1.86736 c -0.789248,0.15951 -1.300681,0.92816 -1.142043,1.71742 0.159426,0.78923 0.927369,1.30066 1.717406,1.14124"
         style="fill:#cfb8a5;fill-opacity:1;fill-rule:nonzero;stroke:none;stroke-width:0.07892495"
         id="path3987"
         inkscape:connector-curvature="0" />
      <path
         d="m 78.156751,225.62903 9.284736,-1.86832 c 0.789254,-0.1584 1.300688,-0.92736 1.142045,-1.71646 -0.159515,-0.78926 -0.928165,-1.30069 -1.717419,-1.14126 l -9.28393,1.86745 c -0.790038,0.15839 -1.300689,0.92738 -1.14205,1.71661 0.158643,0.78925 0.927364,1.30046 1.716618,1.14198"
         style="fill:#cfb8a5;fill-opacity:1;fill-rule:nonzero;stroke:none;stroke-width:0.07892495"
         id="path3989"
         inkscape:connector-curvature="0" />
      <path
         d="m 79.815756,233.87519 9.28393,-1.86745 c 0.790038,-0.15929 1.300689,-0.92738 1.142046,-1.71748 -0.158621,-0.78926 -0.92736,-1.29982 -1.716614,-1.14133 l -9.284736,1.86735 c -0.789232,0.15885 -1.300666,0.92736 -1.14124,1.71662 0.158621,0.78925 0.92736,1.30069 1.716614,1.14229"
         style="fill:#cfb8a5;fill-opacity:1;fill-rule:nonzero;stroke:none;stroke-width:0.07892495"
         id="path3991"
         inkscape:connector-curvature="0" />
      <path
         d="m 81.473956,242.12126 9.284735,-1.86736 c 0.790038,-0.15884 1.300688,-0.92738 1.142046,-1.71663 -0.158621,-0.78923 -0.92736,-1.30076 -1.716614,-1.14227 l -9.284736,1.86736 c -0.789255,0.15884 -1.300688,0.92736 -1.142045,1.71661 0.15862,0.7902 0.927381,1.30078 1.716614,1.14229"
         style="fill:#cfb8a5;fill-opacity:1;fill-rule:nonzero;stroke:none;stroke-width:0.07892495"
         id="path3993"
         inkscape:connector-curvature="0" />
      <path
         d="m 83.13296,250.36743 9.284736,-1.86745 c 0.789255,-0.15862 1.299905,-0.92738 1.141262,-1.71662 -0.15862,-0.78925 -0.927381,-1.30068 -1.716613,-1.1422 l -9.284736,1.86736 c -0.789255,0.15929 -1.300688,0.92736 -1.141262,1.71756 0.15862,0.78925 0.927381,1.30068 1.716613,1.14135"
         style="fill:#cfb8a5;fill-opacity:1;fill-rule:nonzero;stroke:none;stroke-width:0.07892495"
         id="path3995"
         inkscape:connector-curvature="0" />
      <path
         d="m 84.791182,258.61413 9.285519,-1.86832 c 0.789255,-0.1584 1.299905,-0.92736 1.141262,-1.71662 -0.15862,-0.78923 -0.927382,-1.30044 -1.716614,-1.14195 l -9.284735,1.86829 c -0.789255,0.1584 -1.300688,0.92739 -1.142046,1.71664 0.158621,0.78923 0.92736,1.30044 1.716614,1.14196"
         style="fill:#cfb8a5;fill-opacity:1;fill-rule:nonzero;stroke:none;stroke-width:0.07892495"
         id="path3997"
         inkscape:connector-curvature="0" />
      <path
         d="m 86.450187,266.8602 9.284736,-1.86736 c 0.789232,-0.15929 1.300666,-0.92736 1.14124,-1.71755 -0.158621,-0.78926 -0.92736,-1.29975 -1.716614,-1.14104 l -9.284736,1.86713 c -0.789232,0.15862 -1.299883,0.9277 -1.14124,1.71693 0.158621,0.78926 0.92736,1.30038 1.716614,1.14189"
         style="fill:#cfb8a5;fill-opacity:1;fill-rule:nonzero;stroke:none;stroke-width:0.07892495"
         id="path3999"
         inkscape:connector-curvature="0" />
      <path
         d="m 88.109192,275.10636 9.284736,-1.86736 c 0.789232,-0.15884 1.300666,-0.92738 1.14124,-1.71661 -0.158621,-0.79019 -0.92736,-1.30078 -1.716614,-1.14229 l -9.284736,1.86736 c -0.789254,0.15884 -1.300688,0.92738 -1.142045,1.71663 0.15862,0.7902 0.927382,1.30076 1.717419,1.14227"
         style="fill:#cfb8a5;fill-opacity:1;fill-rule:nonzero;stroke:none;stroke-width:0.07892495"
         id="path4001"
         inkscape:connector-curvature="0" />
      <path
         d="m 89.767392,283.35244 9.284735,-1.86736 c 0.789255,-0.15885 1.300693,-0.92736 1.141263,-1.71662 -0.15862,-0.78925 -0.927382,-1.30068 -1.716614,-1.14229 l -9.283953,1.86745 c -0.790038,0.15929 -1.300688,0.92738 -1.142045,1.71749 0.15862,0.78925 0.927381,1.29981 1.716614,1.14133"
         style="fill:#cfb8a5;fill-opacity:1;fill-rule:nonzero;stroke:none;stroke-width:0.07892495"
         id="path4003"
         inkscape:connector-curvature="0" />
      <path
         d="m 73.181321,200.89078 2.831827,-0.57063 c 0.789244,-0.15862 1.300677,-0.92736 1.141251,-1.71661 -0.15862,-0.79004 -0.927363,-1.30069 -1.716613,-1.14205 l -2.831828,0.57064 c -0.790038,0.15862 -1.300682,0.92816 -1.142043,1.71739 0.159426,0.78926 0.928158,1.29991 1.717406,1.14126"
         style="fill:#ead7c4;fill-opacity:1;fill-rule:nonzero;stroke:none;stroke-width:0.07892495"
         id="path4005"
         inkscape:connector-curvature="0" />
      <path
         d="m 74.839536,209.13686 2.831823,-0.56983 c 0.790038,-0.15862 1.300688,-0.92738 1.142045,-1.71661 -0.15862,-0.78926 -0.927359,-1.30069 -1.716614,-1.14126 l -2.83183,0.56904 c -0.790037,0.15862 -1.300683,0.92738 -1.142043,1.71661 0.158643,0.79004 0.927369,1.30069 1.716619,1.14205"
         style="fill:#ead7c4;fill-opacity:1;fill-rule:nonzero;stroke:none;stroke-width:0.07892495"
         id="path4007"
         inkscape:connector-curvature="0" />
      <path
         d="m 76.498536,217.38295 2.831828,-0.56906 c 0.789254,-0.15862 1.300688,-0.92736 1.142045,-1.71662 -0.15862,-0.79003 -0.927359,-1.30068 -1.716614,-1.14204 l -2.832622,0.56904 c -0.789248,0.15952 -1.300681,0.92738 -1.142043,1.71742 0.159426,0.78926 0.927369,1.30069 1.717406,1.14126"
         style="fill:#ead7c4;fill-opacity:1;fill-rule:nonzero;stroke:none;stroke-width:0.07892495"
         id="path4009"
         inkscape:connector-curvature="0" />
      <path
         d="m 78.156751,225.62965 2.832618,-0.56975 c 0.789254,-0.1584 1.299883,-0.92736 1.141262,-1.71662 -0.15862,-0.78925 -0.927382,-1.3006 -1.716636,-1.14198 l -2.831812,0.56976 c -0.789255,0.15885 -1.300689,0.92738 -1.14205,1.71664 0.158643,0.78923 0.927364,1.30075 1.716618,1.14195"
         style="fill:#ead7c4;fill-opacity:1;fill-rule:nonzero;stroke:none;stroke-width:0.07892495"
         id="path4011"
         inkscape:connector-curvature="0" />
      <path
         d="m 79.815756,233.87573 2.831835,-0.56967 c 0.789232,-0.15885 1.300665,-0.92738 1.142023,-1.71662 -0.158621,-0.78925 -0.92736,-1.30077 -1.716614,-1.14197 l -2.832618,0.56975 c -0.789232,0.15863 -1.300666,0.92739 -1.14124,1.71662 0.158621,0.78925 0.92736,1.30069 1.716614,1.14189"
         style="fill:#ead7c4;fill-opacity:1;fill-rule:nonzero;stroke:none;stroke-width:0.07892495"
         id="path4013"
         inkscape:connector-curvature="0" />
      <path
         d="m 81.473956,242.12189 2.832617,-0.56976 c 0.789255,-0.15884 1.300688,-0.92736 1.141262,-1.71661 -0.15862,-0.78926 -0.927359,-1.30069 -1.716614,-1.14198 l -2.831834,0.56976 c -0.789255,0.15839 -1.300688,0.92738 -1.142045,1.71663 0.15862,0.78989 0.927381,1.30076 1.716614,1.14196"
         style="fill:#ead7c4;fill-opacity:1;fill-rule:nonzero;stroke:none;stroke-width:0.07892495"
         id="path4015"
         inkscape:connector-curvature="0" />
      <path
         d="m 83.13296,250.36796 2.831835,-0.56913 c 0.789254,-0.1584 1.300688,-0.92736 1.142045,-1.71715 -0.15862,-0.78925 -0.927359,-1.30013 -1.716614,-1.14135 l -2.832617,0.56913 c -0.789255,0.15929 -1.300688,0.92738 -1.141262,1.71717 0.15862,0.78926 0.927381,1.30076 1.716613,1.14133"
         style="fill:#ead7c4;fill-opacity:1;fill-rule:nonzero;stroke:none;stroke-width:0.07892495"
         id="path4017"
         inkscape:connector-curvature="0" />
      <path
         d="m 84.791182,258.61507 2.832618,-0.57008 c 0.789254,-0.15839 1.300688,-0.92735 1.142045,-1.71661 -0.159515,-0.78925 -0.927382,-1.30075 -1.717419,-1.14196 l -2.831812,0.56976 c -0.789255,0.15885 -1.300688,0.92736 -1.142046,1.71662 0.158621,0.78925 0.92736,1.30069 1.716614,1.14227"
         style="fill:#ead7c4;fill-opacity:1;fill-rule:nonzero;stroke:none;stroke-width:0.07892495"
         id="path4019"
         inkscape:connector-curvature="0" />
      <path
         d="m 86.450187,266.86085 2.831835,-0.56978 c 0.789232,-0.1584 1.300665,-0.92736 1.142023,-1.71662 -0.158621,-0.78923 -0.92736,-1.30066 -1.716614,-1.14188 l -2.831812,0.56969 c -0.790038,0.15884 -1.300689,0.92736 -1.142046,1.71661 0.158621,0.78926 0.92736,1.30076 1.716614,1.14198"
         style="fill:#ead7c4;fill-opacity:1;fill-rule:nonzero;stroke:none;stroke-width:0.07892495"
         id="path4021"
         inkscape:connector-curvature="0" />
      <path
         d="m 88.109192,275.10699 2.831812,-0.56976 c 0.789255,-0.15884 1.300688,-0.92736 1.142045,-1.71661 -0.159515,-0.78926 -0.927359,-1.30076 -1.717396,-1.14196 l -2.831835,0.56976 c -0.789254,0.15884 -1.300688,0.92736 -1.142045,1.71661 0.15862,0.78926 0.927382,1.30069 1.717419,1.14196"
         style="fill:#ead7c4;fill-opacity:1;fill-rule:nonzero;stroke:none;stroke-width:0.07892495"
         id="path4023"
         inkscape:connector-curvature="0" />
      <path
         d="m 89.767392,283.35309 2.831834,-0.56914 c 0.790038,-0.15929 1.300688,-0.92738 1.142045,-1.71726 -0.15862,-0.78923 -0.927359,-1.29973 -1.716614,-1.14133 l -2.831834,0.56913 c -0.790038,0.15952 -1.300688,0.92736 -1.142045,1.71724 0.15862,0.78926 0.927381,1.30013 1.716614,1.14136"
         style="fill:#ead7c4;fill-opacity:1;fill-rule:nonzero;stroke:none;stroke-width:0.07892495"
         id="path4025"
         inkscape:connector-curvature="0" />
      <path
         d="m 103.06467,226.02672 0.73086,3.6229 c 0.36541,1.81984 2.13806,2.9982 3.95728,2.63192 l 27.16283,-5.46398 c 1.82,-0.3663 2.99835,-2.13809 2.63214,-3.95802 l -0.73637,-3.65422 -33.74674,6.8214"
         style="fill:#5388ce;fill-opacity:1;fill-rule:nonzero;stroke:none;stroke-width:0.07892495"
         id="path4027"
         inkscape:connector-curvature="0" />
      <path
         d="m 134.93616,224.24073 -28.20069,5.67242 c -1.53272,0.30867 -3.02599,-0.68435 -3.33379,-2.21881 L 100.01501,210.859 c -0.308601,-1.53271 0.68429,-3.02598 2.21781,-3.33378 l 28.20066,-5.67314 c 1.53271,-0.3078 3.02598,0.68429 3.33378,2.21859 l 3.38667,16.83549 c 0.30861,1.53256 -0.68428,3.02599 -2.21777,3.33457"
         style="fill:#ead7c4;fill-opacity:1;fill-rule:nonzero;stroke:none;stroke-width:0.07892495"
         id="path4029"
         inkscape:connector-curvature="0" />
      <path
         d="m 100.69693,214.2362 c -0.36622,-1.82001 0.81292,-3.59187 2.63213,-3.95808 l 27.16362,-5.46319 c 1.80975,-0.36463 3.56977,0.80187 3.9494,2.60531 l -0.56984,-2.83103 c -0.36622,-1.82001 -2.13807,-2.99837 -3.95809,-2.63216 l -27.16281,5.46319 c -1.82,0.36622 -2.998352,2.13809 -2.63214,3.95809 l 3.17751,15.79746 0.009,0.0277 -2.60768,-12.96728"
         style="fill:#cfb8a5;fill-opacity:1;fill-rule:nonzero;stroke:none;stroke-width:0.07892495"
         id="path4031"
         inkscape:connector-curvature="0" />
      <path
         d="m 107.12853,216.7318 22.65461,-4.58001 -0.38514,-1.90524 -22.65464,4.58002"
         style="fill:#cfb8a5;fill-opacity:1;fill-rule:nonzero;stroke:none;stroke-width:0.07892495"
         id="path4033"
         inkscape:connector-curvature="0" />
      <path
         d="m 107.86805,220.3892 22.65461,-4.58001 -0.38514,-1.90526 -22.65463,4.57923"
         style="fill:#cfb8a5;fill-opacity:1;fill-rule:nonzero;stroke:none;stroke-width:0.07892495"
         id="path4035"
         inkscape:connector-curvature="0" />
      <path
         d="m 108.60679,224.04649 22.65461,-4.57914 -0.38515,-1.90604 -22.65463,4.58001"
         style="fill:#cfb8a5;fill-opacity:1;fill-rule:nonzero;stroke:none;stroke-width:0.07892495"
         id="path4037"
         inkscape:connector-curvature="0" />
      <path
         d="m 152.13073,228.78508 c -4.36692,2.52961 -9.03533,5.03548 -13.88446,7.40259 -5.85388,2.85307 -8.28554,9.91132 -5.43241,15.76527 2.04258,4.19013 6.23902,6.62631 10.60751,6.62631 1.73319,0 3.4948,-0.38414 5.15774,-1.19397 0.26757,-0.13021 3.57057,-1.74655 8.42366,-4.37947 l -4.87204,-24.22073"
         style="fill:#5388ce;fill-opacity:1;fill-rule:nonzero;stroke:none;stroke-width:0.07892495"
         id="path4039"
         inkscape:connector-curvature="0" />
      <path
         d="m 156.0904,248.47228 -3.8468,-1.08215 -46.98639,-13.21132 -9.444163,1.10898 7.482103,5.86877 46.98717,13.21226 6.44581,1.8119 0.96839,0.27252 -1.60612,-7.98096"
         style="fill:#5388ce;fill-opacity:1;fill-rule:nonzero;stroke:none;stroke-width:0.07892495"
         id="path4041"
         inkscape:connector-curvature="0" />
      <path
         d="m 103.29515,238.2413 46.98717,13.21188 1.96128,-6.97838 -46.98639,-13.21125 -1.96206,6.97775"
         style="fill:#f7bf42;fill-opacity:1;fill-rule:nonzero;stroke:none;stroke-width:0.07892495"
         id="path4043"
         inkscape:connector-curvature="0" />
      <path
         d="m 104.69526,233.26044 46.98719,13.21092 0.56115,-1.99656 -46.98639,-13.21125 -0.56195,1.99689"
         style="fill:#fad84d;fill-opacity:1;fill-rule:nonzero;stroke:none;stroke-width:0.07892495"
         id="path4045"
         inkscape:connector-curvature="0" />
      <path
         d="m 103.29515,238.2413 46.98717,13.21188 0.62509,-2.22496 -46.98639,-13.21188 -0.62587,2.22496"
         style="fill:#e38a2c;fill-opacity:1;fill-rule:nonzero;stroke:none;stroke-width:0.07892495"
         id="path4047"
         inkscape:connector-curvature="0" />
      <path
         d="m 156.72813,253.26539 -6.44581,-1.81221 1.96128,-6.97838 6.44581,1.81187 -1.96128,6.97872"
         style="fill:#ead7c4;fill-opacity:1;fill-rule:nonzero;stroke:none;stroke-width:0.07892495"
         id="path4049"
         inkscape:connector-curvature="0" />
      <path
         d="m 156.72813,253.26539 4.44979,1.2508 c 0.75847,0.21321 1.54613,-0.22786 1.75845,-0.98656 l 1.19016,-4.23268 c 0.21299,-0.75751 -0.22808,-1.5452 -0.98655,-1.7582 l -4.45057,-1.25208 -1.96128,6.97872"
         style="fill:#f14754;fill-opacity:1;fill-rule:nonzero;stroke:none;stroke-width:0.07892495"
         id="path4051"
         inkscape:connector-curvature="0" />
      <path
         d="m 103.29515,238.2413 -7.482103,-5.86878 9.444163,-1.10897 z"
         style="fill:#ead7c4;fill-opacity:1;fill-rule:nonzero;stroke:none;stroke-width:0.07892495"
         id="path4053"
         inkscape:connector-curvature="0" />
      <path
         d="m 97.59123,233.76785 -1.778183,-1.39533 2.244626,-0.26392 z"
         style="fill:#2c2b62;fill-opacity:1;fill-rule:nonzero;stroke:none;stroke-width:0.07892495"
         id="path4055"
         inkscape:connector-curvature="0" />
      <g
         id="g435">
        <path
           inkscape:connector-curvature="0"
           id="path3817"
           style="fill:#61c9ab;fill-opacity:1;fill-rule:nonzero;stroke:none;stroke-width:0.07892495"
           d="m 109.37709,59.932397 4.4703,36.619612 40.85237,18.451861 0.53747,-1.19098 -40.18148,-18.148798 -4.38191,-35.890338 -1.29675,0.158621" />
        <path
           inkscape:connector-curvature="0"
           id="path3845"
           style="fill:#782a1a;fill-opacity:1;fill-rule:nonzero;stroke:none;stroke-width:0.07892495"
           d="M 87.993952,41.50895 C 82.44474,52.907299 71.129272,58.828228 62.721397,54.735193 54.312734,50.641352 51.994707,38.082815 57.543921,26.684466 63.093135,15.28614 74.407815,9.3651882 82.81648,13.459029 c 8.408654,4.093818 10.726683,16.652356 5.177472,28.049921" />
        <path
           inkscape:connector-curvature="0"
           id="path3847"
           style="fill:#782a1a;fill-opacity:1;fill-rule:nonzero;stroke:none;stroke-width:0.07892495"
           d="m 134.12876,36.913139 c 0,16.709205 -14.98628,30.255105 -33.47367,30.255105 -18.487366,0 -33.475222,-13.5459 -33.475222,-30.255105 0,-16.709987 14.987856,-30.2558645 33.475222,-30.2558645 18.48739,0 33.47367,13.5458775 33.47367,30.2558645" />
        <path
           inkscape:connector-curvature="0"
           id="path3853"
           style="fill:#4e2219;fill-opacity:1;fill-rule:nonzero;stroke:none;stroke-width:0.07892495"
           d="m 92.966223,113.30381 c -0.03087,-2.13885 -0.319634,-4.20906 -0.815296,-6.20034 -0.631394,-0.0915 -1.271469,-0.15392 -1.894989,-0.26755 1.159406,2.01258 2.076519,4.18145 2.710285,6.46789" />
        <path
           inkscape:connector-curvature="0"
           id="path3859"
           style="fill:#782a1a;fill-opacity:1;fill-rule:nonzero;stroke:none;stroke-width:0.07892495"
           d="m 155.79838,105.98984 c 1.40881,2.25015 2.49166,4.7213 3.2091,7.34397 -0.0678,-5.23982 -1.5856,-10.12292 -4.18145,-14.269624 -1.4396,-2.299885 -2.56348,-4.774186 -3.31249,-7.336075 -0.0678,5.014086 1.57773,9.936649 4.28484,14.261729" />
        <path
           inkscape:connector-curvature="0"
           id="path3861"
           style="fill:#782a1a;fill-opacity:1;fill-rule:nonzero;stroke:none;stroke-width:0.07892495"
           d="m 38.550631,120.62096 c 0,-5.00306 1.327517,-9.69673 3.648701,-13.74795 2.95416,-5.15536 4.081209,-11.105535 2.822355,-16.913618 -0.220995,-1.019713 -0.373315,-2.074148 -0.505908,-3.137263 0.19652,4.561872 -0.976301,9.087411 -3.289592,13.126014 -2.321184,4.051217 -3.648701,8.744087 -3.648701,13.747927 0,2.52007 0.360688,4.94938 0.994454,7.26663 -0.0016,-0.11522 -0.02125,-0.22494 -0.02125,-0.34174" />
        <path
           inkscape:connector-curvature="0"
           id="path3875"
           style="fill:#f2547e;fill-opacity:1;fill-rule:nonzero;stroke:none;stroke-width:0.07892495"
           d="m 52.33803,139.79735 -0.01656,7.8e-4 0.01656,0.004 z" />
        <path
           inkscape:connector-curvature="0"
           id="path3879"
           style="fill:#f3638c;fill-opacity:1;fill-rule:nonzero;stroke:none;stroke-width:0.07892495"
           d="m 52.33803,134.92374 -0.01656,7.8e-4 0.01656,0.004 z" />
        <path
           inkscape:connector-curvature="0"
           id="path3885"
           style="fill:#9a351f;fill-opacity:1;fill-rule:nonzero;stroke:none;stroke-width:0.07892495"
           d="m 72.627267,82.140296 c 0,6.138792 -4.976218,11.115002 -11.114999,11.115002 -6.138783,0 -11.115001,-4.97621 -11.115001,-11.115002 0,-6.13877 4.976218,-11.115001 11.115001,-11.115001 6.138781,0 11.114999,4.976231 11.114999,11.115001" />
        <path
           inkscape:connector-curvature="0"
           id="path3887"
           style="fill:#9a351f;fill-opacity:1;fill-rule:nonzero;stroke:none;stroke-width:0.07892495"
           d="m 142.4277,82.140296 c 0,6.138792 -4.97621,11.115002 -11.115,11.115002 -6.13956,0 -11.11501,-4.97621 -11.11501,-11.115002 0,-6.13877 4.97545,-11.115001 11.11501,-11.115001 6.13879,0 11.115,4.976231 11.115,11.115001" />
        <path
           inkscape:connector-curvature="0"
           id="path3889"
           style="fill:#a2442e;fill-opacity:1;fill-rule:nonzero;stroke:none;stroke-width:0.07892495"
           d="m 96.659911,126.04388 c -20.693329,0 -37.468827,-16.77471 -37.468827,-37.468827 V 38.236714 h 74.937676 v 50.338339 c 0,20.694117 -16.77552,37.468827 -37.468849,37.468827" />
        <path
           inkscape:connector-curvature="0"
           id="path3891"
           style="fill:#ffffff;fill-opacity:1;fill-rule:nonzero;stroke:none;stroke-width:0.07892495"
           d="m 84.46365,97.972658 c -1.278584,0.0045 -2.051261,1.528775 -1.392236,2.624242 2.778946,4.61948 7.849075,7.69992 13.631116,7.6715 5.78126,-0.0284 10.82141,-3.15936 13.5538,-7.80567 0.64797,-1.102579 -0.13804,-2.496403 -1.4175,-2.490072 H 84.46365" />
        <path
           inkscape:connector-curvature="0"
           id="path3893"
           style="fill:#9b3b23;fill-opacity:1;fill-rule:nonzero;stroke:none;stroke-width:0.07892495"
           d="m 59.191084,70.418375 c 9.414957,-4.939138 16.518204,-13.685593 19.247426,-24.209448 5.579213,14.14651 19.340559,24.172355 35.46967,24.172355 7.43709,0 14.35408,-2.161758 20.22058,-5.842022 0,-15.87261 -12.86715,-28.738947 -28.73895,-28.738947 H 87.930034 c -15.871814,0 -28.73895,12.866337 -28.73895,28.738947 v 5.879115" />
        <path
           inkscape:connector-curvature="0"
           id="path3895"
           style="fill:#2e1411;fill-opacity:1;fill-rule:nonzero;stroke:none;stroke-width:0.07892495"
           d="m 80.758127,75.615579 c -2.96759,0 -5.748903,1.411969 -7.438686,3.778144 -0.387522,0.541413 -0.262032,1.293574 0.278604,1.67952 0.540636,0.38673 1.292791,0.261243 1.680312,-0.279409 1.258065,-1.760799 3.25566,-2.770266 5.47977,-2.770266 2.224088,0 4.221677,1.009467 5.479746,2.770266 0.235984,0.329121 0.605353,0.504342 0.981031,0.504342 0.242315,0 0.48698,-0.07338 0.699295,-0.224933 0.540629,-0.385946 0.666116,-1.138107 0.279386,-1.67952 -1.691355,-2.366175 -4.472673,-3.778927 -7.439458,-3.778144" />
        <g
           id="g3899"
           clip-path="url(#clipPath3903)"
           transform="matrix(0.07892495,0,0,-0.07892495,-94.715729,301.10811)">
          <path
             d="m 2578.55,4085.86 c -108.36,-36.51 -308.07,-93.55 -387.73,-192.05 -206.85,-255.77 -88.16,-627.11 144.39,-815.18 232.55,-188.08 588.76,-133.2 795.62,122.57 79.66,98.49 125.41,212.41 138.46,326.01 l -690.74,558.65"
             style="fill:#431715;fill-opacity:1;fill-rule:nonzero;stroke:none"
             id="path3905"
             inkscape:connector-curvature="0" />
          <path
             d="m 1800.99,3651.35 c -50.39,0 -98.49,-8.85 -142.64,-24.8 v -653.56 c 44.15,-15.94 92.25,-24.8 142.64,-24.8 213.56,0 386.69,157.41 386.69,351.58 0,194.18 -173.13,351.58 -386.69,351.58"
             style="fill:#431715;fill-opacity:1;fill-rule:nonzero;stroke:none"
             id="path3907"
             inkscape:connector-curvature="0" />
        </g>
        <path
           inkscape:connector-curvature="0"
           id="path3909"
           style="fill:#2e1411;fill-opacity:1;fill-rule:nonzero;stroke:none;stroke-width:0.07892495"
           d="m 116.2712,78.456878 c 0,1.305408 -1.05761,2.36302 -2.36302,2.36302 -1.30463,0 -2.36302,-1.057612 -2.36302,-2.36302 0,-1.305432 1.05839,-2.363021 2.36302,-2.363021 1.30541,0 2.36302,1.057589 2.36302,2.363021" />
        <path
           inkscape:connector-curvature="0"
           id="path3911"
           style="fill:#9b3b23;fill-opacity:1;fill-rule:nonzero;stroke:none;stroke-width:0.07892495"
           d="m 101.81371,89.711573 c 0,0.978659 -2.307758,4.110418 -5.153799,4.110418 -2.846019,0 -5.153802,-3.131759 -5.153802,-4.110418 0,-0.97866 2.307783,0.848451 5.153802,0.848451 2.846041,0 5.153799,-1.827111 5.153799,-0.848451" />
        <path
           inkscape:connector-curvature="0"
           id="path3919"
           style="fill:#ffffff;fill-opacity:1;fill-rule:nonzero;stroke:none;stroke-width:0.07892495"
           d="m 130.087,78.632098 h -0.53906 c 0,3.969115 -1.6069,7.557853 -4.20828,10.159207 -2.60135,2.601376 -6.19007,4.208276 -10.15921,4.208276 -3.96913,0 -7.55707,-1.6069 -10.15923,-4.208276 -2.60137,-2.601354 -4.20827,-6.190092 -4.20827,-10.159207 0,-3.969136 1.6069,-7.557853 4.20827,-10.159229 2.60138,-2.600571 6.1901,-4.208275 10.15923,-4.208275 3.96914,0 7.55786,1.607704 10.15921,4.208275 2.60138,2.601376 4.20828,6.190093 4.20828,10.159229 h 0.53906 0.53906 c -7.8e-4,-8.530225 -6.9154,-15.444826 -15.44561,-15.444826 -8.53022,0 -15.444823,6.914601 -15.445628,15.444826 8.05e-4,8.530204 6.915408,15.444805 15.445628,15.44561 8.53021,-8.05e-4 15.44483,-6.915406 15.44561,-15.44561 H 130.087" />
        <path
           inkscape:connector-curvature="0"
           id="path3921"
           style="fill:#ffffff;fill-opacity:1;fill-rule:nonzero;stroke:none;stroke-width:0.07892495"
           d="m 93.242456,81.201102 c 0.944743,-0.944743 2.179119,-1.415123 3.417455,-1.415929 1.238336,8.06e-4 2.472735,0.471186 3.417459,1.415929 l 0.7624,-0.76243 c -1.153071,-1.153075 -2.669228,-1.731604 -4.179859,-1.730821 -1.510609,-7.83e-4 -3.026766,0.577746 -4.179863,1.730821 l 0.762408,0.76243" />
        <path
           inkscape:connector-curvature="0"
           id="path3923"
           style="fill:#ffffff;fill-opacity:1;fill-rule:nonzero;stroke:none;stroke-width:0.07892495"
           d="m 92.992265,78.632098 h -0.539041 c 0,3.969115 -1.606922,7.557853 -4.208276,10.159207 -2.601376,2.601376 -6.190092,4.208276 -10.159229,4.208276 -3.969137,0 -7.557855,-1.6069 -10.15922,-4.208276 -2.601368,-2.601354 -4.208278,-6.190092 -4.208278,-10.159207 0,-3.969136 1.60691,-7.557853 4.208278,-10.159229 2.601365,-2.600571 6.190083,-4.208275 10.15922,-4.208275 3.969137,0 7.557853,1.607704 10.159229,4.208275 2.601354,2.601376 4.208276,6.190093 4.208276,10.159229 h 0.539041 0.539063 c -7.83e-4,-8.530225 -6.915406,-15.444826 -15.445609,-15.444826 -8.53021,0 -15.444825,6.914601 -15.445614,15.444826 7.89e-4,8.530204 6.915404,15.444805 15.445614,15.44561 8.530203,-8.05e-4 15.444826,-6.915406 15.445609,-15.44561 h -0.539063" />
        <path
           inkscape:connector-curvature="0"
           id="path3925"
           style="fill:#b46351;fill-opacity:1;fill-rule:nonzero;stroke:none;stroke-width:0.07892495"
           d="m 64.727669,83.933468 c -0.651919,-1.640055 -1.009448,-3.428484 -1.009448,-5.30137 0,-3.969136 1.60691,-7.557853 4.208278,-10.159229 2.601365,-2.600571 6.190083,-4.208275 10.15922,-4.208275 1.843689,0 3.606077,0.347264 5.224834,0.979464 -6.175886,6.249268 -12.365965,12.481979 -18.582884,18.68941" />
        <path
           inkscape:connector-curvature="0"
           id="path3927"
           style="fill:#ffffff;fill-opacity:1;fill-rule:nonzero;stroke:none;stroke-width:0.07892495"
           d="m 64.31726,84.343108 c -0.730844,-1.760039 -1.138099,-3.687379 -1.138099,-5.71101 0,-8.232672 6.673894,-14.905785 14.906558,-14.905785 1.993651,0 3.891795,0.397782 5.629708,1.107323 -0.134906,0.136472 -0.269924,0.273883 -0.404874,0.410422 -1.618757,-0.6322 -3.381145,-0.979464 -5.224834,-0.979464 -3.969137,0 -7.557855,1.607704 -10.15922,4.208275 -2.601368,2.601376 -4.208278,6.190093 -4.208278,10.159229 0,1.872886 0.357529,3.661315 1.009448,5.30137 -0.136539,0.136472 -0.27387,0.273101 -0.410409,0.40964" />
        <path
           inkscape:connector-curvature="0"
           id="path3929"
           style="fill:#b46351;fill-opacity:1;fill-rule:nonzero;stroke:none;stroke-width:0.07892495"
           d="m 73.222363,92.155872 c -1.353563,-0.486958 -2.612417,-1.171241 -3.74341,-2.018105 4.024383,-4.014911 8.038506,-8.04009 12.044736,-12.073928 1.516157,0.161752 2.891816,0.805027 3.950993,1.839729 L 73.222363,92.155872 m 13.953138,-13.95234 c -1.022084,-0.996826 -2.273038,-1.737152 -3.641604,-2.164912 2.005486,-2.022848 4.009407,-4.047284 6.011717,-6.074069 0.868184,1.146788 1.56824,2.426155 2.063901,3.804185 l -4.434014,4.434796" />
        <path
           inkscape:connector-curvature="0"
           id="path3931"
           style="fill:#573b35;fill-opacity:1;fill-rule:nonzero;stroke:none;stroke-width:0.07892495"
           d="m 85.474682,79.903568 c -1.059177,-1.034702 -2.434836,-1.677954 -3.950993,-1.839729 0.670077,-0.67482 1.340154,-1.349617 2.010208,-2.025219 1.368566,0.42776 2.61952,1.168086 3.641604,2.164912 l -1.700819,1.700036" />
        <path
           inkscape:connector-curvature="0"
           id="path3933"
           style="fill:#ffffff;fill-opacity:1;fill-rule:nonzero;stroke:none;stroke-width:0.07892495"
           d="m 72.819055,92.55918 c -1.338567,-0.510629 -2.589528,-1.198066 -3.713418,-2.048889 0.124704,-0.123944 0.249404,-0.248603 0.373316,-0.372524 1.130993,0.846864 2.389847,1.531147 3.74341,2.018105 l -0.403308,0.403308 m 18.79046,-18.790444 c -0.495661,-1.37803 -1.195717,-2.657397 -2.063901,-3.804185 0.123048,-0.124615 0.247036,-0.250191 0.370957,-0.375678 0.872905,1.140457 1.57692,2.412732 2.097034,3.775772 l -0.40409,0.404091" />
        <path
           inkscape:connector-curvature="0"
           id="path3935"
           style="fill:#b46351;fill-opacity:1;fill-rule:nonzero;stroke:none;stroke-width:0.07892495"
           d="m 78.085719,92.999581 c -0.470403,0 -0.935257,-0.02282 -1.393816,-0.06622 l 15.695009,-15.69502 c 0.0443,0.458545 0.06622,0.923422 0.06622,1.393824 0,3.969115 -1.606922,7.557853 -4.208276,10.159207 -2.601376,2.601376 -6.190092,4.208276 -10.159229,4.208276" />
        <path
           inkscape:connector-curvature="0"
           id="path3937"
           style="fill:#ffffff;fill-opacity:1;fill-rule:nonzero;stroke:none;stroke-width:0.07892495"
           d="m 78.085719,93.538644 c -0.634549,0 -1.255697,-0.0528 -1.868943,-0.130207 l 0.475127,-0.475123 c 0.458559,0.0434 0.923413,0.06622 1.393816,0.06622 3.969137,0 7.557853,-1.606899 10.159229,-4.208276 2.601354,-2.601353 4.208276,-6.190092 4.208276,-10.159206 0,-0.470403 -0.02237,-0.93528 -0.06622,-1.393825 l 0.47434,-0.475123 c 0.07808,0.61325 0.131103,1.234376 0.131103,1.868948 0,8.23265 -6.673896,14.906546 -14.906546,14.906546" />
        <path
           inkscape:connector-curvature="0"
           id="path3939"
           style="fill:#b46351;fill-opacity:1;fill-rule:nonzero;stroke:none;stroke-width:0.07892495"
           d="m 101.82239,83.933468 c -0.65191,-1.640055 -1.00944,-3.428484 -1.00944,-5.30137 0,-3.62346 1.33935,-6.928829 3.55084,-9.456802 3.04965,0.786883 6.2477,1.205986 9.54439,1.205986 0.48224,0 0.96208,-0.0089 1.4396,-0.02685 -4.49796,4.537396 -9.00457,9.065329 -13.52539,13.579033" />
        <path
           inkscape:connector-curvature="0"
           id="path3941"
           style="fill:#ad5b48;fill-opacity:1;fill-rule:nonzero;stroke:none;stroke-width:0.07892495"
           d="m 113.90818,70.381282 c -3.29669,0 -6.49474,-0.419103 -9.54439,-1.205986 0.21142,-0.24151 0.43091,-0.475906 0.65743,-0.702427 0.81924,-0.819233 1.73635,-1.539827 2.73239,-2.142025 2.38117,0.413576 4.80099,0.617993 7.23505,0.617993 1.29909,0 2.60057,-0.05839 3.90284,-0.174505 -1.18072,1.194129 -2.36143,2.387474 -3.54372,3.580036 -0.47752,0.0179 -0.95736,0.02685 -1.4396,0.02685" />
        <path
           inkscape:connector-curvature="0"
           id="path3943"
           style="fill:#683e39;fill-opacity:1;fill-rule:nonzero;stroke:none;stroke-width:0.07892495"
           d="m 114.98866,66.948837 c -2.43406,0 -4.85388,-0.204484 -7.23505,-0.617993 2.16727,-1.31174 4.70788,-2.06625 7.42684,-2.06625 1.84369,0 3.60608,0.347264 5.22484,0.979464 -0.50434,0.509846 -1.00866,1.020496 -1.51379,1.530341 -1.30227,0.116113 -2.60375,0.174505 -3.90284,0.174505" />
        <path
           inkscape:connector-curvature="0"
           id="path3945"
           style="fill:#ffffff;fill-opacity:1;fill-rule:nonzero;stroke:none;stroke-width:0.07892495"
           d="m 101.41199,84.343108 c -0.45935,-1.107324 -0.79162,-2.280153 -0.97394,-3.502695 l 0.40172,-0.401741 c -0.16175,-0.161082 -0.3299,-0.310955 -0.50432,-0.449865 -0.0412,-0.44671 -0.0615,-0.898946 -0.0615,-1.356709 0,-8.232672 6.67468,-14.905785 14.90657,-14.905785 1.99363,0 3.89177,0.397782 5.62971,1.107323 -0.13491,0.136472 -0.26993,0.273883 -0.40488,0.410422 -1.61875,-0.6322 -3.38114,-0.979464 -5.22483,-0.979464 -2.71897,0 -5.25958,0.75451 -7.42684,2.06625 -0.99604,0.602198 -1.91316,1.322792 -2.73239,2.142025 -0.22652,0.226521 -0.44593,0.460917 -0.65744,0.702427 -2.21149,2.527973 -3.55084,5.833342 -3.55084,9.456802 0,1.872886 0.35754,3.661315 1.00945,5.30137 -0.13647,0.136472 -0.27386,0.273101 -0.4104,0.40964" />
        <path
           inkscape:connector-curvature="0"
           id="path3947"
           style="fill:#ffffff;fill-opacity:1;fill-rule:nonzero;stroke:none;stroke-width:0.07892495"
           d="m 100.43805,80.840413 c -0.0425,-0.280975 -0.0765,-0.565105 -0.10269,-0.851606 0.17451,0.138933 0.34253,0.288873 0.50432,0.449865 l -0.40172,0.401741" />
        <path
           inkscape:connector-curvature="0"
           id="path3949"
           style="fill:#b46351;fill-opacity:1;fill-rule:nonzero;stroke:none;stroke-width:0.07892495"
           d="m 110.31709,92.155872 c -1.35355,-0.486958 -2.61243,-1.171241 -3.74261,-2.018105 6.71414,-6.699154 13.40065,-13.425133 20.06587,-20.173216 0.86818,1.146788 1.56824,2.426938 2.06388,3.804185 l -18.38714,18.387136" />
        <path
           inkscape:connector-curvature="0"
           id="path3951"
           style="fill:#ffffff;fill-opacity:1;fill-rule:nonzero;stroke:none;stroke-width:0.07892495"
           d="m 109.91378,92.55918 c -1.33856,-0.510629 -2.58952,-1.198066 -3.71342,-2.048889 0.12462,-0.123944 0.24941,-0.248603 0.37412,-0.372524 1.13018,0.846864 2.38906,1.531147 3.74261,2.018105 l -0.40331,0.403308 m 18.79045,-18.790444 c -0.49564,-1.377247 -1.1957,-2.657397 -2.06388,-3.804185 0.12394,-0.124615 0.24782,-0.250191 0.37174,-0.375678 0.87212,1.140457 1.57692,2.412732 2.09625,3.775772 l -0.40411,0.404091" />
        <path
           inkscape:connector-curvature="0"
           id="path3953"
           style="fill:#b46351;fill-opacity:1;fill-rule:nonzero;stroke:none;stroke-width:0.07892495"
           d="m 115.18045,92.999581 c -0.46962,0 -0.93528,-0.02282 -1.39382,-0.06622 l 15.69502,-15.695017 c 0.0443,0.458545 0.0662,0.923422 0.0662,1.393824 0,3.969115 -1.6069,7.557853 -4.20828,10.159207 -2.60135,2.601376 -6.19007,4.208276 -10.1592,4.208276" />
        <path
           inkscape:connector-curvature="0"
           id="path3955"
           style="fill:#ffffff;fill-opacity:1;fill-rule:nonzero;stroke:none;stroke-width:0.07892495"
           d="m 115.18045,93.538644 c -0.63457,0 -1.25569,-0.0528 -1.86894,-0.130207 l 0.47512,-0.475123 c 0.45854,0.0434 0.9242,0.06622 1.39382,0.06622 3.96914,0 7.55786,-1.606899 10.15921,-4.208276 2.60138,-2.601353 4.20828,-6.190092 4.20828,-10.159206 0,-0.470403 -0.0224,-0.93528 -0.0662,-1.393825 l 0.47513,-0.475123 c 0.0781,0.61325 0.1302,1.234376 0.1302,1.868948 0,8.23265 -6.67389,14.906546 -14.90654,14.906546" />
        <path
           inkscape:connector-curvature="0"
           id="path3957"
           style="fill:#ffffff;fill-opacity:1;fill-rule:nonzero;stroke:none;stroke-width:0.07892495"
           d="m 129.78157,76.154643 h 2.68422 l 2.83105,-4.857837 c 0.14923,-0.257305 0.0624,-0.587209 -0.19486,-0.737171 -0.2565,-0.149895 -0.5864,-0.06242 -0.73637,0.194193 l -2.51848,4.32271 h -2.06547 c -0.29755,0 -0.53828,0.241511 -0.53828,0.539064 0,0.297553 0.24073,0.539063 0.53828,0.539063" />
        <path
           inkscape:connector-curvature="0"
           id="path3959"
           style="fill:#ffffff;fill-opacity:1;fill-rule:nonzero;stroke:none;stroke-width:0.07892495"
           d="m 63.485391,75.076516 h -2.150704 l -2.099404,-4.287989 c -0.131013,-0.267552 -0.45382,-0.378049 -0.720584,-0.247036 -0.267557,0.131102 -0.378052,0.453825 -0.247037,0.720593 l 2.394584,4.892559 h 2.823145 c 0.297546,0 0.539057,-0.24151 0.539057,-0.539064 0,-0.297553 -0.241511,-0.539063 -0.539057,-0.539063" />
        <path
           inkscape:connector-curvature="0"
           id="path3961"
           style="fill:#5d2016;fill-opacity:1;fill-rule:nonzero;stroke:none;stroke-width:0.07892495"
           d="m 145.43001,55.979055 c -1.86814,-2.601376 -3.12699,-5.565007 -3.7142,-8.713322 -3.90363,-20.927749 -22.22054,-36.777449 -44.280068,-36.777449 -8.972193,0 -17.32165,2.626612 -24.338871,7.145865 l -0.0025,-0.0045 v 0.0045 c -9.882983,6.364507 -17.118033,16.488209 -19.689408,28.354566 -0.815294,3.765503 -2.43878,7.288713 -4.617899,10.466246 -3.450598,5.032252 -5.550791,11.650889 -5.550791,18.91356 0,2.657419 0.28334,5.226422 0.812137,7.66363 0.127858,0.591929 0.215468,1.185447 0.294389,1.779748 -0.05683,-0.835028 -0.133384,-1.662942 -0.133384,-2.517703 0,-7.36055 2.15702,-14.058117 5.690489,-19.114844 2.092301,-2.994393 3.654225,-6.319517 4.400066,-9.89481 1.444326,-6.924869 3.688953,-13.756625 6.866471,-19.70599 2.552432,-4.778907 9.89561,-1.267533 7.757533,3.710265 -1.83106,4.263536 -4.466364,8.481275 -8.258707,11.790604 0,0 5.455293,-2.361432 10.278396,-7.148236 4.748127,-4.7134 12.460681,-4.864929 17.322455,-0.268335 8.570451,8.103226 21.144782,14.999683 38.647182,13.572725 0,0 -7.47655,-3.133326 -15.72184,-10.328119 -11.921621,-10.402328 3.0173,-28.863651 15.65396,-19.343736 9.33841,7.034584 13.62324,16.903374 15.77079,28.236999 0.6314,3.332999 1.94155,6.491561 3.90048,9.261826 2.14044,3.0252 3.76866,6.657319 4.74731,10.663549 -0.30305,-6.843569 -2.44982,-13.037599 -5.83412,-17.748627" />
        <path
           inkscape:connector-curvature="0"
           id="path4057"
           style="fill:#f3638c;fill-opacity:1;fill-rule:nonzero;stroke:none;stroke-width:0.07892495"
           d="m 52.33803,134.92374 -0.01656,7.8e-4 0.01656,0.004 z" />
      </g>
      <path
         d="m 83.08166,156.02906 c 0,0 2.778164,2.41114 7.174278,1.7174 4.396137,-0.69297 7.591009,3.2367 9.015596,3.81286 1.425396,0.57457 3.241446,1.10417 3.241446,1.10417 0,0 -1.06705,3.72367 -9.092149,1.81132 -8.025079,-1.91235 -10.51202,-3.85075 -10.339171,-8.44575"
         style="fill:#ead7c4;fill-opacity:1;fill-rule:nonzero;stroke:none;stroke-width:0.07892495"
         id="path4059"
         inkscape:connector-curvature="0" />
      <path
         d="m 65.458516,151.48376 c 4.768644,0.75217 11.388084,9.29264 15.26961,15.41405 l -0.852389,0.57457 c -4.168028,-5.41346 -8.083496,-9.77879 -14.417221,-11.29416 v -4.69446"
         style="fill:#9a4c38;fill-opacity:1;fill-rule:nonzero;stroke:none;stroke-width:0.07892495"
         id="path4061"
         inkscape:connector-curvature="0" />
      <path
         d="m 102.51298,162.66349 c -0.83737,0.43409 -1.83104,0.69296 -2.992822,0.69296 -1.741872,0 -3.116747,-0.56591 -4.127779,-1.46011 -1.120725,-0.99052 -2.717378,-1.1831 -4.148296,-0.74901 -0.601415,0.18234 -1.266749,0.28257 -1.996806,0.28257 -3.707088,0 -5.758349,-2.56035 -6.165617,-5.40084 -0.719005,0.72847 -1.345656,1.57611 -1.867359,2.5256 -1.992063,3.625 -5.673124,5.88701 -9.731444,6.68414 -2.419839,0.47513 -4.515297,1.63059 -5.982512,3.48138 -4.240637,5.34481 -1.647952,14.46222 5.790725,20.36423 7.438684,5.90041 16.906515,6.35108 21.147142,1.0055 0.797935,-1.0055 1.352793,-2.14518 1.680326,-3.37168 1.26516,0.10023 2.524795,-0.0434 3.738678,-0.46091 6.452094,-2.2178 9.181334,-11.29497 6.094584,-20.27504 -0.40252,-1.17124 -0.89107,-2.27619 -1.43882,-3.31879"
         style="fill:#f14754;fill-opacity:1;fill-rule:nonzero;stroke:none;stroke-width:0.07892495"
         id="path4063"
         inkscape:connector-curvature="0" />
      <path
         d="m 65.500345,168.72018 c 0.430142,-0.54301 0.920266,-1.01813 1.451429,-1.44195 1.137309,3.49638 3.708684,6.83332 7.081936,9.80957 12.508808,11.04081 29.86914,-4.61552 31.04512,-6.15535 0.82004,7.15376 -1.96365,13.51749 -7.221614,15.32487 -1.213883,0.41751 -2.473518,0.56114 -3.738678,0.46091 -0.327533,1.2265 -0.882391,2.36618 -1.680326,3.37168 -4.240627,5.34558 -13.708458,4.89491 -21.147142,-1.0055 -7.438677,-5.90201 -10.031362,-15.01942 -5.790725,-20.36423"
         style="fill:#e21c34;fill-opacity:1;fill-rule:nonzero;stroke:none;stroke-width:0.07892495"
         id="path4065"
         inkscape:connector-curvature="0" />
      <path
         d="m 63.936052,169.04614 c 6.460009,-0.74742 10.940577,-7.88617 10.940577,-7.88617 0,0 -5.993562,-5.92569 -12.453568,-5.17749 -6.460007,0.74742 -10.941365,7.88619 -10.941365,7.88619 0,0 5.99356,5.92569 12.454356,5.17747"
         style="fill:#399c86;fill-opacity:1;fill-rule:nonzero;stroke:none;stroke-width:0.07892495"
         id="path4067"
         inkscape:connector-curvature="0" />
      <path
         d="m 69.101691,166.00991 c -6.460797,0.74742 -12.453569,-5.17749 -12.453569,-5.17749 0,0 1.445116,-2.29908 3.874426,-4.42375 -5.418197,1.71346 -9.040852,7.46 -9.040852,7.46 0,0 5.99356,5.92569 12.454356,5.17747 2.793945,-0.32279 5.214572,-1.84288 7.065362,-3.46242 -0.613246,0.19419 -1.243068,0.34963 -1.899723,0.42619"
         style="fill:#307f74;fill-opacity:1;fill-rule:nonzero;stroke:none;stroke-width:0.07892495"
         id="path4069"
         inkscape:connector-curvature="0" />
      <path
         d="m 66.542155,153.83099 c 0,1.29595 -0.4846,2.34723 -1.083639,2.34723 -0.598252,0 -1.082853,-1.05128 -1.082853,-2.34723 0,-1.29673 0.484601,-2.34723 1.082853,-2.34723 0.599039,0 1.083639,1.0505 1.083639,2.34723"
         style="fill:#6b3026;fill-opacity:1;fill-rule:nonzero;stroke:none;stroke-width:0.07892495"
         id="path4071"
         inkscape:connector-curvature="0" />
      <path
         d="m 54.396394,163.7716 -0.277817,-0.93054 c 0.617193,-0.1848 15.199368,-4.48135 22.031113,-1.73398 l -0.363056,0.90211 c -6.517622,-2.62031 -21.242652,1.71979 -21.39024,1.76241"
         style="fill:#307f74;fill-opacity:1;fill-rule:nonzero;stroke:none;stroke-width:0.07892495"
         id="path4073"
         inkscape:connector-curvature="0" />
      <path
         d="m 97.989012,182.39709 c -3.806556,-5.28244 -11.174982,-6.47973 -16.459014,-2.67476 -15.017045,10.81667 -31.374242,20.83461 -42.014116,26.02314 1.971546,-7.05432 4.194861,-13.51434 6.444223,-19.29085 -7.348702,-2.82788 -14.864725,-5.18774 -22.285249,-7.81279 -3.707105,9.63675 -7.30924,20.92616 -10.042412,33.55179 -2.39774,11.07879 3.643965,16.4006 6.35346,18.17335 2.70239,1.77029 5.750472,2.68809 9.387334,2.68809 8.438655,0 20.039834,-4.94392 37.814523,-15.65949 14.519024,-8.75278 27.579532,-18.14562 28.128059,-18.54106 5.28325,-3.80734 6.47894,-11.17417 2.673192,-16.45742"
         style="fill:#a2442e;fill-opacity:1;fill-rule:nonzero;stroke:none;stroke-width:0.07892495"
         id="path4075"
         inkscape:connector-curvature="0" />
      <path
         d="m 21.214766,170.53389 28.046771,14.86551 -1.745821,5.037 -29.211704,-8.02589 2.910754,-11.87662"
         style="fill:#ffffff;fill-opacity:1;fill-rule:nonzero;stroke:none;stroke-width:0.07892495"
         id="path4077"
         inkscape:connector-curvature="0" />
      <path
         d="m 176.8666,163.30594 -16.07226,17.22457 c 9.48994,9.33763 16.17171,16.92389 18.44318,20.76989 -3.51768,6.00856 -21.55756,19.26637 -43.12303,29.79575 -5.85386,2.85298 -8.28554,9.91155 -5.43238,15.76527 2.04255,4.19011 6.23821,6.6266 10.60672,6.6266 1.73319,0 3.4948,-0.38442 5.15774,-1.195 0.53588,-0.26115 13.29568,-6.50514 26.27648,-14.9412 20.97272,-13.63514 30.38847,-24.81724 30.53449,-36.26056 0.0931,-7.33844 -4.32904,-16.2688 -26.39094,-37.78532"
         style="fill:#a2442e;fill-opacity:1;fill-rule:nonzero;stroke:none;stroke-width:0.07892495"
         id="path4081"
         inkscape:connector-curvature="0" />
      <path
         d="m 179.91706,202.66422 v 0"
         style="fill:#a2442e;fill-opacity:1;fill-rule:nonzero;stroke:none;stroke-width:0.07892495"
         id="path4083"
         inkscape:connector-curvature="0" />
      <path
         d="m 179.74736,200.18757 v 0"
         style="fill:#a2442e;fill-opacity:1;fill-rule:nonzero;stroke:none;stroke-width:0.07892495"
         id="path4085"
         inkscape:connector-curvature="0" />
      <path
         d="m 175.63064,179.37979 c 0.49092,-3.80023 5.06384,-7.04327 7.49787,-9.82143 -1.81369,-1.88788 -4.28721,-4.30376 -6.43791,-6.41344 l -15.90731,17.39743 c 8.90273,8.72594 16.05255,16.55608 18.46844,20.75333 -2.84842,4.99673 -15.17884,14.25226 -29.77128,22.66944 0,0 36.37651,-15.82744 36.10106,-23.21403 -0.18457,-4.9265 -10.63594,-16.06201 -9.95087,-21.3713"
         style="fill:#9a351f;fill-opacity:1;fill-rule:nonzero;stroke:none;stroke-width:0.07892495"
         id="path4087"
         inkscape:connector-curvature="0" />
      <path
         d="m 179.91784,202.66422 h 0.0237 -0.0237"
         style="fill:#9b3b23;fill-opacity:1;fill-rule:nonzero;stroke:none;stroke-width:0.07892495"
         id="path4089"
         inkscape:connector-curvature="0" />
      <path
         d="m 158.39186,183.15715 18.93725,-25.78478 6.45605,8.3463 -22.14948,21.02639 -3.24382,-3.58791"
         style="fill:#ffffff;fill-opacity:1;fill-rule:nonzero;stroke:none;stroke-width:0.07892495"
         id="path4091"
         inkscape:connector-curvature="0" />
      <path
         d="m 179.74736,164.74395 c 0,1.23044 -0.99839,2.22883 -2.22883,2.22883 -1.23124,0 -2.22885,-0.99839 -2.22885,-2.22883 0,-1.23203 0.99761,-2.22964 2.22885,-2.22964 1.23044,0 2.22883,0.99761 2.22883,2.22964"
         style="fill:#f7bf42;fill-opacity:1;fill-rule:nonzero;stroke:none;stroke-width:0.07892495"
         id="path4093"
         inkscape:connector-curvature="0" />
    </g>
  </g>
</svg>
