<?xml version="1.0" encoding="UTF-8" standalone="no"?>
<!-- Created with Inkscape (http://www.inkscape.org/) -->

<svg
   width="117.40387mm"
   height="282.44333mm"
   viewBox="0 0 117.40387 282.44333"
   version="1.1"
   id="svg5"
   inkscape:version="1.1.2 (0a00cf5339, 2022-02-04)"
   sodipodi:docname="professor.svg"
   xmlns:inkscape="http://www.inkscape.org/namespaces/inkscape"
   xmlns:sodipodi="http://sodipodi.sourceforge.net/DTD/sodipodi-0.dtd"
   xmlns="http://www.w3.org/2000/svg"
   xmlns:svg="http://www.w3.org/2000/svg">
  <sodipodi:namedview
     id="namedview7"
     pagecolor="#ffffff"
     bordercolor="#666666"
     borderopacity="1.0"
     inkscape:pageshadow="2"
     inkscape:pageopacity="0.0"
     inkscape:pagecheckerboard="0"
     inkscape:document-units="mm"
     showgrid="false"
     fit-margin-top="0"
     fit-margin-left="0"
     fit-margin-right="0"
     fit-margin-bottom="0"
     inkscape:zoom="0.38803576"
     inkscape:cx="92.774955"
     inkscape:cy="519.28204"
     inkscape:window-width="1440"
     inkscape:window-height="827"
     inkscape:window-x="0"
     inkscape:window-y="0"
     inkscape:window-maximized="1"
     inkscape:current-layer="layer1" />
  <defs
     id="defs2">
    <clipPath
       id="clipPath4922"
       clipPathUnits="userSpaceOnUse">
      <path
         inkscape:connector-curvature="0"
         id="path4920"
         d="m 6398.72,2425.95 -106.36,8.03 77.26,1023.75 106.35,-8.02 -77.25,-1023.76" />
    </clipPath>
  </defs>
  <g
     inkscape:label="Camada 1"
     inkscape:groupmode="layer"
     id="layer1"
     transform="translate(-37.132314,49.446677)">
    <path
       d="m 104.07766,9.3771527 c 0.525,0.3723345 3.76262,1.1582293 7.48661,1.9737543 -8.52116,10.781573 -26.56002,9.439755 -36.70128,0.256383 4.353976,-0.752396 9.285153,-1.591114 10.577366,-1.7585993 2.440773,-0.3143587 1.109265,-13.3795343 1.109265,-13.3795343 l 18.858909,-1.8887247 c 0,0 -2.66238,13.8523596 -1.33087,14.796721"
       style="fill:#f57d6e;fill-opacity:1;fill-rule:nonzero;stroke:none;stroke-width:0.0644176"
       id="path5010"
       inkscape:connector-curvature="0" />
    <path
       d="m 85.859718,9.6419096 c 1.79725,-1.6555322 0.762706,-12.4383939 0.693774,-13.1366803 0.06902,0.698931 1.103476,11.4792162 -0.692496,13.1366803 -6.39e-4,0 -6.39e-4,0 -0.0013,0 M 103.72723,6.590449 c 0.0566,-1.2136286 0.21514,-2.6965207 0.41292,-4.200673 -0.19778,1.5035078 -0.35624,2.9870444 -0.41228,4.200673 v 0 M 86.552853,-3.4999237 c 0,-0.00129 0,-0.00256 -6.57e-4,-0.00329 6.57e-4,6.446e-4 6.57e-4,0.00201 6.57e-4,0.00329 m -6.57e-4,-0.00584 v 0 0 m 0,-0.00201 c 0,-0.00129 -6.39e-4,-0.00201 -6.39e-4,-0.00256 0,6.427e-4 6.39e-4,0.00129 6.39e-4,0.00256 m -6.39e-4,-0.00456 c 0,-6.446e-4 0,-0.00129 0,-0.00129 0,0 0,6.428e-4 0,0.00129 m 0,-0.00329 c 0,0 0,-6.428e-4 -6.4e-4,-6.428e-4 6.4e-4,0 6.4e-4,6.428e-4 6.4e-4,6.428e-4 m -6.4e-4,-0.00511 c 0,0 0,-6.445e-4 0,-6.445e-4 0,0 0,6.445e-4 0,6.445e-4 m -6.39e-4,-0.00456 c 0,0 0,0 0,0 0,0 0,0 0,0 m 0,-0.00129 c 0,0 0,-6.445e-4 0,-6.445e-4 0,0 0,6.445e-4 0,6.445e-4 m 0,-0.00129 v -6.446e-4 6.446e-4 m -6.57e-4,-0.00201 c 0,-6.446e-4 0,-0.00129 0,-0.00129 v 0 c 0,0 0,6.427e-4 0,0.00129 m 18.857609,-1.8835699 c 0,-6.446e-4 6.4e-4,-6.446e-4 6.4e-4,-6.446e-4 0,0 -6.4e-4,0 -6.4e-4,6.446e-4 m 0.001,-0.00457 c 0,0 0,0 0,-6.446e-4 0,6.446e-4 0,6.446e-4 0,6.446e-4 m 0,-0.00129 c 0,0 0,-6.446e-4 0,-6.446e-4 v 0 c 0,0 0,6.446e-4 0,6.446e-4"
       style="fill:#f4b3b1;fill-opacity:1;fill-rule:nonzero;stroke:none;stroke-width:0.0644176"
       id="path5012"
       inkscape:connector-curvature="0" />
    <path
       d="m 85.860996,9.6419096 c 1.795972,-1.6574641 0.761428,-12.4377493 0.692496,-13.1366803 -6.39e-4,-0.00201 -6.39e-4,-0.00383 -6.39e-4,-0.00511 0,-0.00129 0,-0.00256 -6.57e-4,-0.00329 0,-0.00129 0,-0.00201 0,-0.00256 v 0 c 0,-6.446e-4 0,-0.00129 0,-0.00201 0,-0.00129 -6.39e-4,-0.00201 -6.39e-4,-0.00256 0,-6.446e-4 0,-0.00129 0,-0.00201 0,-6.446e-4 0,-0.00129 0,-0.00129 0,-6.446e-4 0,-0.00129 0,-0.00201 0,0 0,-6.428e-4 -6.4e-4,-6.428e-4 0,-0.00201 0,-0.00329 0,-0.00457 0,0 0,-6.446e-4 0,-6.446e-4 -6.39e-4,-0.00129 -6.39e-4,-0.00256 -6.39e-4,-0.00383 0,0 0,0 0,0 0,-6.446e-4 0,-0.00129 0,-0.00129 0,0 0,-6.446e-4 0,-6.446e-4 0,0 0,-6.428e-4 0,-6.428e-4 v -6.446e-4 c -6.57e-4,-6.445e-4 -6.57e-4,-0.00129 -6.57e-4,-0.00129 0,-6.446e-4 0,-0.00129 0,-0.00129 l 18.858909,-1.8887247 c 0,0 0,6.446e-4 0,6.446e-4 0,6.446e-4 0,6.446e-4 0,6.446e-4 0,6.446e-4 0,6.446e-4 0,6.446e-4 0,6.427e-4 -6.6e-4,0.00201 -6.6e-4,0.00383 0,0 -6.4e-4,0 -6.4e-4,6.446e-4 -0.0329,0.1739274 -0.77366,4.0544424 -1.26708,7.8029021 -0.19778,1.5041523 -0.35624,2.9870444 -0.41292,4.200673 C 98.406966,8.664428 92.193253,9.4116716 85.860996,9.641643"
       style="fill:#f47063;fill-opacity:1;fill-rule:nonzero;stroke:none;stroke-width:0.0644176"
       id="path5014"
       inkscape:connector-curvature="0" />
    <path
       d="m 106.90945,-29.076285 c 0,0 -5.34343,-9.448129 -17.100291,-6.629859 -11.756859,2.817626 -12.647112,13.42656 -13.359567,22.70849 -0.712454,9.2825751 1.98407,19.5694211 12.916376,19.2125475 8.196486,-0.267978 22.175742,-3.4650228 17.543482,-35.2911785"
       style="fill:#f57d6e;fill-opacity:1;fill-rule:nonzero;stroke:none;stroke-width:0.0644176"
       id="path5016"
       inkscape:connector-curvature="0" />
    <path
       d="m 107.05632,-18.360418 c 0,0 0.51212,-1.751515 3.31879,-0.06312 3.56038,2.141884 0.79428,11.1397331 -3.35615,10.5354971 -4.14977,-0.6042378 0.0374,-10.4723691 0.0374,-10.4723691"
       style="fill:#f57d6e;fill-opacity:1;fill-rule:nonzero;stroke:none;stroke-width:0.0644176"
       id="path5018"
       inkscape:connector-curvature="0" />
    <path
       d="m 105.23009,-39.68393 c -5.496108,0.343991 -8.989485,4.1311 -5.583081,4.080211 -2.710694,3.586772 4.528561,3.316862 0.342706,4.567851 -1.470651,6.964186 4.004205,11.380012 4.004205,11.380012 l 0.39938,7.371949 2.0021,0.01223 c 0,0 -0.69314,-5.613994 1.69546,-6.367036 2.38797,-0.752396 3.4586,2.027222 3.4586,2.027222 3.62026,-6.80443 3.98744,-23.716626 -6.31937,-23.07245"
       style="fill:#29202e;fill-opacity:1;fill-rule:nonzero;stroke:none;stroke-width:0.0644176"
       id="path5020"
       inkscape:connector-curvature="0" />
    <path
       d="m 103.99392,-19.655856 c 0,0 1.23617,16.9051096 -3.27307,18.1934604 -4.509224,1.28835259 -0.64418,-5.3685619 -6.656265,-5.1534067 -6.012742,0.2145105 -14.816687,-0.8593315 -14.172525,4.0795665 0.64418,4.9388961 -1.288342,3.22087965 -2.576701,-0.8586869 0,0 -2.576702,9.662639 7.730122,11.3800109 10.307446,1.7180183 23.160699,-0.3600929 21.349919,-20.2567552 -1.80949,-19.896662 0.12307,-10.448534 0.12307,-10.448534 l -2.52452,3.064345"
       style="fill:#29202e;fill-opacity:1;fill-rule:nonzero;stroke:none;stroke-width:0.0644176"
       id="path5022"
       inkscape:connector-curvature="0" />
    <path
       d="m 101.57953,-30.879978 c 0,0 -11.595165,5.797585 -16.318908,4.509232 -4.724382,-1.288353 -1.288342,-4.509232 -1.288342,-4.509232 0,0 -4.509241,4.509232 -9.448124,0.644176 -4.938902,-3.865056 5.583063,-7.944621 5.583063,-7.944621 0,0 -6.656904,2.361549 -7.945264,0 -1.288341,-2.362194 10.092305,-1.932529 10.092305,-1.932529 0,0 -6.871423,-1.718016 -6.012084,-5.153406 0.858681,-3.436035 13.312529,2.791214 13.312529,2.791214 0,0 -10.091666,-3.435391 -5.153404,-6.227249 4.938902,-2.791214 20.399109,2.576703 20.399109,10.950992 0,8.374286 -3.22088,6.871423 -3.22088,6.871423"
       style="fill:#29202e;fill-opacity:1;fill-rule:nonzero;stroke:none;stroke-width:0.0644176"
       id="path5024"
       inkscape:connector-curvature="0" />
    <path
       d="m 89.057409,-20.687181 c 0,0 0.0882,-0.161036 0.297603,-0.392304 0.102439,-0.118526 0.235775,-0.251872 0.399385,-0.395524 0.166897,-0.133993 0.353004,-0.302762 0.581055,-0.439972 0.224161,-0.148163 0.479254,-0.290524 0.763345,-0.41485 0.278923,-0.140438 0.598439,-0.224816 0.925678,-0.329173 0.336899,-0.05991 0.68605,-0.160396 1.053882,-0.159757 0.18293,-0.0058 0.367813,-0.01932 0.553336,-0.01808 l 0.558503,0.05347 c 0.374917,0.03157 0.735645,0.147523 1.08801,0.25316 0.354301,0.09921 0.66801,0.2931 0.978505,0.441905 0.303409,0.166204 0.557864,0.387794 0.806512,0.573961 0.254454,0.180373 0.428382,0.429021 0.610672,0.622273 0.173837,0.205492 0.33175,0.388438 0.432254,0.586201 0.113395,0.184233 0.19646,0.356229 0.266031,0.493439 0.137316,0.276995 0.195201,0.444482 0.195201,0.444482 0,0 -0.177123,-0.06249 -0.451573,-0.188101 -0.135855,-0.06378 -0.302771,-0.135271 -0.476041,-0.231259 -0.169453,-0.101782 -0.392957,-0.168778 -0.608116,-0.2654 -0.223522,-0.08374 -0.432874,-0.224173 -0.688625,-0.2931 -0.250583,-0.07859 -0.493425,-0.194541 -0.75626,-0.270554 -0.268625,-0.05927 -0.525636,-0.166843 -0.802002,-0.215798 -0.277627,-0.04057 -0.546251,-0.133993 -0.830981,-0.144292 l -0.420001,-0.05668 c -0.141698,0 -0.282794,-0.01351 -0.423872,-0.01998 -0.280858,-0.03349 -0.562356,0.0051 -0.839362,-0.01296 -0.273774,0.03091 -0.550761,0.01607 -0.809726,0.0541 -0.262179,0.01932 -0.514058,0.04702 -0.749815,0.07923 -0.474123,0.05347 -0.884464,0.119823 -1.178854,0.167482 -0.302113,0.04959 -0.474744,0.07795 -0.474744,0.07795"
       style="fill:#29202e;fill-opacity:1;fill-rule:nonzero;stroke:none;stroke-width:0.0644176"
       id="path5026"
       inkscape:connector-curvature="0" />
    <path
       d="m 77.507966,-20.162179 c 0,0 0.08181,-0.593286 0.590714,-1.303812 0.253816,-0.353008 0.621629,-0.722121 1.100902,-1.033257 0.118508,-0.07923 0.253797,-0.138503 0.386494,-0.206136 0.131472,-0.07021 0.269281,-0.134632 0.420658,-0.17265 0.147541,-0.04381 0.296964,-0.0934 0.449636,-0.13076 l 0.473467,-0.05604 c 0.31694,-0.04574 0.635159,0.01868 0.943718,0.05025 0.302753,0.05798 0.585547,0.172631 0.856107,0.267334 0.250583,0.135271 0.484422,0.278928 0.697646,0.416781 0.203563,0.151376 0.366535,0.326598 0.521782,0.477336 0.155941,0.14944 0.279562,0.302761 0.369749,0.455432 0.09915,0.143013 0.172558,0.278284 0.234478,0.385862 0.121795,0.217087 0.174019,0.351074 0.174019,0.351074 0,0 -0.14882,-0.03479 -0.379409,-0.112738 -0.113943,-0.0393 -0.254454,-0.0831 -0.400042,-0.146227 -0.144985,-0.06636 -0.318858,-0.115312 -0.502445,-0.166842 -0.182236,-0.05219 -0.365257,-0.130122 -0.562375,-0.184234 -0.200331,-0.04123 -0.403256,-0.08825 -0.603588,-0.147523 -0.208713,-0.01424 -0.413554,-0.0554 -0.619693,-0.07666 -0.206138,0.01868 -0.412915,-0.03866 -0.617118,0.0077 l -0.309217,0.02126 c -0.10043,0.02706 -0.203563,0.04187 -0.305984,0.06185 -0.206139,0.02834 -0.403896,0.110802 -0.607459,0.159118 -0.396811,0.140439 -0.783961,0.302119 -1.122796,0.467673 -0.339473,0.16361 -0.635798,0.318222 -0.846447,0.432885 -0.217733,0.11659 -0.342706,0.182309 -0.342706,0.182309"
       style="fill:#29202e;fill-opacity:1;fill-rule:nonzero;stroke:none;stroke-width:0.0644176"
       id="path5028"
       inkscape:connector-curvature="0" />
    <path
       d="m 84.61646,-19.714476 c 0.01643,1.0674 -0.01863,2.128357 -0.07213,3.187383 -0.05478,1.059024 -0.134029,2.115473 -0.22869,3.169344 -0.04255,0.528225 -0.106273,1.053229 -0.158497,1.579521 -0.05095,0.526936 -0.113943,1.052582 -0.180958,1.576943 -0.124351,1.0512943 -0.275709,2.0993677 -0.438042,3.1455109 l -0.239645,-0.3839296 c 1.03133,0.4361079 2.04913,0.9069994 3.036016,1.4680777 C 85.215571,-6.1610144 84.1282,-6.4399429 83.05436,-6.753657 l -0.262818,-0.076656 0.02246,-0.3079165 c 0.07797,-1.0558047 0.166898,-2.1109648 0.282156,-3.1629035 0.05277,-0.526936 0.110108,-1.052584 0.179131,-1.577587 0.06756,-0.524359 0.123621,-1.05065 0.201628,-1.574366 0.145533,-1.048718 0.305985,-2.095504 0.491507,-3.139714 0.18618,-1.044209 0.391022,-2.085841 0.648052,-3.121676"
       style="fill:#cb5550;fill-opacity:1;fill-rule:nonzero;stroke:none;stroke-width:0.0644176"
       id="path5030"
       inkscape:connector-curvature="0" />
    <path
       d="m 107.87894,-9.7374785 c 0.19712,-0.2261057 0.37749,-0.4612305 0.53144,-0.7073055 0.15393,-0.246076 0.26475,-0.514697 0.31501,-0.771723 0.0212,-0.127547 0.0303,-0.256383 -0.001,-0.369758 -0.005,-0.05925 -0.0258,-0.113377 -0.0548,-0.16361 l -0.0864,-0.148163 c -0.0637,-0.09727 -0.16288,-0.173927 -0.26282,-0.248651 l -0.16744,-0.09791 -0.17256,-0.09406 -0.12947,-0.07087 -0.0212,-0.141078 c -0.11011,-0.708594 -0.16872,-1.410744 -0.16817,-2.128357 -0.004,-0.357519 0.0212,-0.717611 0.0676,-1.080283 0.0477,-0.362671 0.11978,-0.731784 0.28988,-1.096387 0.0902,-0.181013 0.20484,-0.367825 0.3923,-0.518562 0.18424,-0.155247 0.45929,-0.22675 0.68734,-0.191965 0.24414,0.03993 0.38586,0.115313 0.55721,0.183591 0.18616,0.08504 0.35107,0.193252 0.49795,0.314357 0.14499,0.130121 0.27442,0.273131 0.37813,0.433531 0.0986,0.164268 0.17841,0.335616 0.22482,0.514696 0.10116,0.354942 0.11723,0.724698 0.0387,1.069976 -0.0225,-0.350431 -0.10043,-0.691199 -0.25186,-0.986876 -0.0709,-0.150737 -0.17256,-0.280862 -0.27507,-0.401322 -0.10426,-0.121101 -0.22675,-0.220953 -0.35622,-0.308561 -0.13731,-0.08181 -0.2757,-0.146867 -0.41293,-0.197118 -0.15521,-0.04832 -0.34141,-0.106292 -0.44577,-0.105653 -0.22675,-0.0038 -0.37425,0.152033 -0.49408,0.435463 -0.21322,0.565587 -0.24607,1.267737 -0.26088,1.940257 -0.005,0.678961 0.0252,1.373384 0.0793,2.051701 l -0.15138,-0.211934 0.20999,0.133993 c 0.0683,0.04959 0.1417,0.0831 0.20227,0.14944 0.12819,0.116591 0.25124,0.237057 0.34013,0.400034 0.0548,0.07151 0.0831,0.159757 0.11084,0.248007 0.0347,0.08568 0.051,0.173927 0.0502,0.265401 0.0186,0.179734 -0.0194,0.354297 -0.0696,0.510832 -0.10244,0.318867 -0.29761,0.574603 -0.50181,0.800709 -0.20678,0.226106 -0.43611,0.4251575 -0.68926,0.5881344"
       style="fill:#cb5550;fill-opacity:1;fill-rule:nonzero;stroke:none;stroke-width:0.0644176"
       id="path5032"
       inkscape:connector-curvature="0" />
    <path
       d="m 95.474685,-16.249453 c 0,0 0.01461,0.151376 0.02319,0.414205 -0.0037,0.132696 0.02575,0.289234 -0.0091,0.474757 -0.03214,0.186812 -0.07012,0.404543 -0.127455,0.642887 -0.09477,0.216444 -0.175845,0.471538 -0.325961,0.708594 -0.164341,0.228682 -0.323369,0.49215 -0.584251,0.682183 -0.118508,0.106292 -0.240284,0.215153 -0.391661,0.287303 -0.147541,0.07536 -0.286026,0.179716 -0.452868,0.223529 -0.164889,0.04702 -0.331093,0.10306 -0.501167,0.135928 l -0.528229,0.02898 c -0.174566,-0.01424 -0.349772,-0.0541 -0.522421,-0.08438 -0.174019,-0.03028 -0.329814,-0.124333 -0.49085,-0.187456 -0.166897,-0.05668 -0.293111,-0.181013 -0.429678,-0.279572 -0.141699,-0.09534 -0.255733,-0.21451 -0.353644,-0.343991 -0.231903,-0.233191 -0.346577,-0.52307 -0.467039,-0.781384 -0.10043,-0.264113 -0.137133,-0.530157 -0.182235,-0.763349 -0.0073,-0.238989 -0.0037,-0.455433 0.0018,-0.643532 0.0073,-0.187455 0.06373,-0.347855 0.08765,-0.477978 0.0619,-0.260892 0.105726,-0.40261 0.105726,-0.40261 0,0 0.03287,0.152673 0.07669,0.407763 0.02648,0.126907 0.03488,0.280862 0.08053,0.449634 0.05277,0.16814 0.110838,0.353653 0.161054,0.552705 0.09349,0.184233 0.175297,0.38908 0.286026,0.581045 0.133299,0.180374 0.255094,0.376199 0.43481,0.521783 0.07797,0.08568 0.165619,0.160396 0.271838,0.210646 0.103717,0.05153 0.188754,0.137207 0.304706,0.163629 0.112117,0.03221 0.213862,0.0934 0.330453,0.110163 0.116682,0.01424 0.231264,0.04123 0.347855,0.05089 l 0.354301,-0.01223 0.346577,-0.07795 c 0.217715,-0.08568 0.454786,-0.153951 0.636437,-0.305985 0.204842,-0.119165 0.361386,-0.293743 0.526932,-0.44899 0.14882,-0.169417 0.264753,-0.357518 0.396811,-0.519206 0.08637,-0.179077 0.179679,-0.345279 0.264114,-0.498592 0.08308,-0.153312 0.121064,-0.316291 0.17274,-0.435464 0.09404,-0.24543 0.155942,-0.383927 0.155942,-0.383927"
       style="fill:#131a2d;fill-opacity:1;fill-rule:nonzero;stroke:none;stroke-width:0.0644176"
       id="path5034"
       inkscape:connector-curvature="0" />
    <path
       d="m 83.017606,-16.918109 c 0,0 0.01278,0.149459 0.02264,0.40712 -0.0018,0.129482 0.02191,0.284081 -0.0073,0.465738 -0.02958,0.182309 -0.06501,0.394881 -0.118508,0.628073 -0.07852,0.218374 -0.168723,0.460586 -0.296964,0.702795 -0.161054,0.222242 -0.2989,0.492795 -0.550122,0.685404 -0.217734,0.222885 -0.506335,0.392946 -0.811662,0.532733 -0.161054,0.05089 -0.325961,0.103717 -0.492804,0.147523 l -0.52306,0.03349 c -0.173836,-0.0097 -0.347216,-0.05217 -0.519208,-0.0818 -0.17128,-0.03415 -0.325304,-0.127547 -0.483783,-0.192609 -0.165619,-0.05668 -0.282794,-0.190676 -0.418065,-0.287303 -0.139142,-0.09597 -0.238349,-0.224817 -0.335621,-0.351719 -0.223522,-0.23448 -0.315644,-0.526935 -0.432874,-0.779452 -0.07852,-0.264113 -0.124899,-0.52114 -0.152655,-0.75111 -0.0037,-0.233837 0.0037,-0.445769 0.01096,-0.62936 0.01278,-0.18359 0.06574,-0.340125 0.09075,-0.468317 0.0619,-0.254449 0.104996,-0.393591 0.104996,-0.393591 0,0 0.03159,0.149459 0.07341,0.400678 0.02319,0.124972 0.03488,0.275708 0.07341,0.443193 0.04967,0.166203 0.103717,0.349144 0.150646,0.546262 0.07797,0.187454 0.168723,0.384572 0.261539,0.583622 0.132021,0.176502 0.237053,0.380709 0.410981,0.526293 0.144985,0.175863 0.354939,0.278284 0.548844,0.381996 0.107552,0.03221 0.20612,0.09212 0.317579,0.110802 0.112117,0.0115 0.222226,0.04187 0.334964,0.04766 l 0.342048,-0.01424 c 0.110839,-0.03415 0.222244,-0.05861 0.334981,-0.08504 0.209353,-0.09276 0.43481,-0.168778 0.610673,-0.324022 0.199693,-0.120462 0.34077,-0.307272 0.505677,-0.458652 0.131473,-0.178438 0.257029,-0.357518 0.37362,-0.524361 0.08381,-0.177798 0.174567,-0.3427 0.25639,-0.494726 0.07596,-0.154609 0.116682,-0.311138 0.166167,-0.429021 0.09148,-0.241567 0.151924,-0.378133 0.151924,-0.378133"
       style="fill:#131a2d;fill-opacity:1;fill-rule:nonzero;stroke:none;stroke-width:0.0644176"
       id="path5036"
       inkscape:connector-curvature="0" />
    <path
       d="m 82.167945,-3.5102298 13.686167,-1.2638731 c 0,0 -6.020484,7.5677778 -13.686167,1.2638731"
       style="fill:#ffffff;fill-opacity:1;fill-rule:nonzero;stroke:none;stroke-width:0.0644176"
       id="path5038"
       inkscape:connector-curvature="0" />
    <path
       d="m 74.432672,208.69421 -1.348253,17.63933 c 0,0 -49.159643,11.98825 -10.02854,-5.15263 l 1.048075,-23.74367 10.328718,11.25697"
       style="fill:#29202e;fill-opacity:1;fill-rule:nonzero;stroke:none;stroke-width:0.0644176"
       id="path5040"
       inkscape:connector-curvature="0" />
    <path
       d="m 73.465763,221.34576 0.07797,-1.01788 v 0 l -0.07797,1.01788 v 0"
       style="fill:#8b8f97;fill-opacity:1;fill-rule:nonzero;stroke:none;stroke-width:0.0644176"
       id="path5042"
       inkscape:connector-curvature="0" />
    <path
       d="m 63.093897,220.31629 v 0 l 0.05916,-1.33717 v 0 l -0.05916,1.33717"
       style="fill:#adb0b5;fill-opacity:1;fill-rule:nonzero;stroke:none;stroke-width:0.0644176"
       id="path5044"
       inkscape:connector-curvature="0" />
    <path
       d="m 70.633968,221.52542 c -0.320793,0 -0.640309,-0.004 -0.964334,-0.011 -2.264271,-0.0484 -4.466056,-0.37742 -6.575737,-1.19753 l 0.05916,-1.33717 c 2.2688,0.55792 6.164118,1.38627 9.285811,1.38755 0.0018,0 0.0037,0 0.0073,0 v 0 0 c 6.57e-4,0 0.0013,0 0.0018,0 0.37813,0 0.744665,-0.0128 1.096391,-0.0387 l -0.07797,1.01787 c -1.024885,0.1417 -1.931883,0.17968 -2.831795,0.17968"
       style="fill:#201b29;fill-opacity:1;fill-rule:nonzero;stroke:none;stroke-width:0.0644176"
       id="path5046"
       inkscape:connector-curvature="0" />
    <path
       d="m 48.316497,228.93794 c -4.61681,4.67609 24.803347,-2.41411 24.803347,-2.41411 l 0.07468,-1.01785 c -2.344798,0.56113 -23.556864,5.56557 -24.878068,3.43196"
       style="fill:#ffffff;fill-opacity:1;fill-rule:nonzero;stroke:none;stroke-width:0.0644176"
       id="path5048"
       inkscape:connector-curvature="0" />
    <path
       d="m 62.302851,221.42628 0.02063,7e-4 c 0.117778,0.002 0.71503,0.0278 1.381743,0.21722 0.669305,0.18797 1.391419,0.54176 1.810142,1.14966 0.107004,0.1532 0.318219,0.19204 0.472188,0.0851 0.153385,-0.10701 0.191311,-0.31837 0.08509,-0.47213 -0.599077,-0.85502 -1.55052,-1.2531 -2.331267,-1.45512 -0.784601,-0.2006 -1.418482,-0.20234 -1.435865,-0.20312 -0.187459,-5.1e-4 -0.340131,0.15064 -0.340771,0.33768 -6.39e-4,0.18752 0.150646,0.33948 0.338196,0.34001"
       style="fill:#ffffff;fill-opacity:1;fill-rule:nonzero;stroke:none;stroke-width:0.0644176"
       id="path5050"
       inkscape:connector-curvature="0" />
    <path
       d="m 60.302675,222.49567 0.02063,5.3e-4 c 0.118508,0.004 0.715029,0.0279 1.381761,0.21715 0.669944,0.18873 1.391419,0.54174 1.810781,1.14998 0.107004,0.15394 0.318219,0.19195 0.471531,0.0851 0.153932,-0.107 0.191968,-0.31829 0.08509,-0.47229 -0.599096,-0.85478 -1.550539,-1.25287 -2.331286,-1.45444 -0.783961,-0.20104 -1.418463,-0.20303 -1.435865,-0.20354 -0.186801,-7.9e-4 -0.339474,0.15064 -0.340113,0.33741 -6.57e-4,0.18745 0.150646,0.33947 0.337538,0.34018"
       style="fill:#ffffff;fill-opacity:1;fill-rule:nonzero;stroke:none;stroke-width:0.0644176"
       id="path5052"
       inkscape:connector-curvature="0" />
    <path
       d="m 58.057723,223.61191 h 0.02063 c 0.117961,0.004 0.715029,0.0277 1.381761,0.2172 0.669945,0.18868 1.391419,0.54176 1.810781,1.14993 0.106274,0.15375 0.31758,0.19203 0.471531,0.0851 0.153932,-0.10701 0.191968,-0.31777 0.08509,-0.47154 -0.599096,-0.85552 -1.550539,-1.25362 -2.331286,-1.4552 -0.7846,-0.20104 -1.418463,-0.20303 -1.435865,-0.20354 -0.187458,-7.9e-4 -0.339474,0.15064 -0.340113,0.33819 -6.57e-4,0.18675 0.150098,0.33948 0.337538,0.33993"
       style="fill:#ffffff;fill-opacity:1;fill-rule:nonzero;stroke:none;stroke-width:0.0644176"
       id="path5054"
       inkscape:connector-curvature="0" />
    <path
       d="m 100.49797,211.15695 1.34825,17.63935 c 0,0 49.15901,11.98821 10.02854,-5.15218 l -1.04808,-23.74414 -10.32871,11.25697"
       style="fill:#29202e;fill-opacity:1;fill-rule:nonzero;stroke:none;stroke-width:0.0644176"
       id="path5056"
       inkscape:connector-curvature="0" />
    <path
       d="m 101.46488,223.80921 v 0 l -0.1417,-1.85477 v 0 l 0.1417,1.85477"
       style="fill:#8b8f97;fill-opacity:1;fill-rule:nonzero;stroke:none;stroke-width:0.0644176"
       id="path5058"
       inkscape:connector-curvature="0" />
    <path
       d="m 104.28765,223.9881 c -0.89668,0 -1.8011,-0.0385 -2.82277,-0.17895 l -0.1417,-1.85477 c 2.36862,0.48262 4.32112,0.66106 5.91481,0.66106 2.10389,7.1e-4 3.58099,-0.31101 4.56271,-0.64625 l 0.0361,0.8098 c -2.10968,0.82005 -4.31148,1.14922 -6.57511,1.19701 -0.32724,0.007 -0.64997,0.0128 -0.974,0.0128"
       style="fill:#201b29;fill-opacity:1;fill-rule:nonzero;stroke:none;stroke-width:0.0644176"
       id="path5060"
       inkscape:connector-curvature="0" />
    <path
       d="m 126.61415,231.40067 c 4.61681,4.67683 -24.80335,-2.41364 -24.80335,-2.41364 l -0.0747,-1.01786 c 2.34544,0.56115 23.55687,5.56508 24.87808,3.4315"
       style="fill:#ffffff;fill-opacity:1;fill-rule:nonzero;stroke:none;stroke-width:0.0644176"
       id="path5062"
       inkscape:connector-curvature="0" />
    <path
       d="m 112.62587,223.21136 c -0.0183,7.1e-4 -0.6519,0.002 -1.43586,0.20277 -0.78139,0.20234 -1.73285,0.60038 -2.33193,1.45597 -0.107,0.15321 -0.069,0.3646 0.0851,0.47155 0.15394,0.10701 0.3646,0.0688 0.47153,-0.0851 0.44643,-0.64874 1.24069,-1.00679 1.94348,-1.18523 0.34979,-0.0904 0.67188,-0.13585 0.90442,-0.15922 0.11596,-0.011 0.20936,-0.0164 0.27314,-0.0199 l 0.0721,-0.002 0.0206,-7.7e-4 c 0.18746,-5.3e-4 0.3382,-0.15284 0.33754,-0.34021 -6.4e-4,-0.18667 -0.15266,-0.33792 -0.34011,-0.33741"
       style="fill:#ffffff;fill-opacity:1;fill-rule:nonzero;stroke:none;stroke-width:0.0644176"
       id="path5064"
       inkscape:connector-curvature="0" />
    <path
       d="m 114.62603,224.28076 c -0.0183,5.1e-4 -0.65191,0.002 -1.43651,0.20354 -0.78074,0.20209 -1.73219,0.59967 -2.33126,1.45521 -0.10701,0.1532 -0.0688,0.3646 0.0844,0.4716 0.15393,0.10664 0.36524,0.0687 0.47219,-0.0851 0.4464,-0.64816 1.24002,-1.00703 1.94347,-1.18541 0.34914,-0.0897 0.67187,-0.13586 0.90377,-0.15832 0.11668,-0.011 0.21001,-0.0183 0.27377,-0.0206 l 0.0716,-0.004 h 0.0212 c 0.18682,-0.001 0.3382,-0.1532 0.33756,-0.3407 -6.4e-4,-0.18675 -0.15338,-0.33819 -0.34013,-0.33748"
       style="fill:#ffffff;fill-opacity:1;fill-rule:nonzero;stroke:none;stroke-width:0.0644176"
       id="path5066"
       inkscape:connector-curvature="0" />
    <path
       d="m 116.87098,225.39698 c -0.0183,0 -0.6519,0.002 -1.43586,0.20311 -0.78139,0.20155 -1.73283,0.5996 -2.33191,1.45441 -0.10701,0.15394 -0.0688,0.36539 0.0851,0.47154 0.15339,0.107 0.36462,0.0688 0.47155,-0.0842 0.4464,-0.64875 1.24002,-1.00705 1.94348,-1.18549 0.34979,-0.0895 0.67186,-0.13512 0.90376,-0.15849 0.11668,-0.011 0.21001,-0.0164 0.27379,-0.0199 l 0.0721,-0.002 0.0206,-7.7e-4 c 0.18744,-5.1e-4 0.33817,-0.1532 0.33753,-0.33993 -6.3e-4,-0.18751 -0.15265,-0.3382 -0.34013,-0.33774"
       style="fill:#ffffff;fill-opacity:1;fill-rule:nonzero;stroke:none;stroke-width:0.0644176"
       id="path5068"
       inkscape:connector-curvature="0" />
    <path
       d="m 69.36816,66.272061 c 0,0 -10.069115,84.138399 -8.09664,152.211629 0,0 12.034486,3.50166 15.210922,0.95343 2.722929,-16.14241 2.35769,-47.49444 6.441763,-70.8587 3.845724,-21.99926 5.368562,-43.5901 5.368562,-43.5901 l 1.28836,6.4e-4 c 0,0 8.276356,108.52425 10.092305,116.59586 10.437568,2.54821 13.742188,-0.43032 13.742188,-0.43032 0,0 4.7637,-133.022337 1.85331,-154.492074 C 111.4554,38.532557 69.36816,66.272061 69.36816,66.272061"
       style="fill:#5b94c0;fill-opacity:1;fill-rule:nonzero;stroke:none;stroke-width:0.0644176"
       id="path5070"
       inkscape:connector-curvature="0" />
    <path
       d="m 76.482442,219.43712 v 0 c 2.722929,-16.14241 2.35769,-47.49444 6.441763,-70.8587 2.042046,-11.67891 3.428298,-23.24252 4.280552,-31.52211 -0.851596,8.27638 -2.237867,19.83869 -4.280552,31.52211 -4.084073,23.36426 -3.718834,54.71629 -6.441763,70.8587 v 0 m -13.329291,-0.458 c -1.150497,-0.28279 -1.881631,-0.49543 -1.881631,-0.49543 v 0 0 c 0,0 0.731774,0.21264 1.881631,0.49543 v 0 m -1.884845,-0.61396 c 0,-0.002 0,-0.005 -6.57e-4,-0.007 l 6.57e-4,0.007 m -0.0037,-0.12472 v -0.004 0.004 m -0.0037,-0.11923 c 0,-0.005 0,-0.011 -6.39e-4,-0.0164 0,0.004 6.39e-4,0.011 6.39e-4,0.0164 m -0.0037,-0.12107 c -6.39e-4,-0.004 -6.39e-4,-0.007 -6.39e-4,-0.011 0,0.004 0,0.007 6.39e-4,0.011 m -0.0037,-0.11668 c -6.57e-4,-0.011 -6.57e-4,-0.0183 -0.0013,-0.0278 6.39e-4,0.009 6.39e-4,0.0194 0.0013,0.0278 m -0.0037,-0.12435 c 0,-0.007 0,-0.0128 -6.39e-4,-0.0199 6.39e-4,0.009 6.39e-4,0.011 6.39e-4,0.0199 m -0.0037,-0.12472 c 0,-0.007 -6.57e-4,-0.0188 -6.57e-4,-0.0265 0,0.009 6.57e-4,0.0183 6.57e-4,0.0265 m -0.0037,-0.11723 c -6.39e-4,-0.0109 -6.39e-4,-0.0206 -6.39e-4,-0.0309 0,0.009 6.39e-4,0.0223 6.39e-4,0.0309 m -0.0037,-0.11851 c -6.39e-4,-0.0164 -6.39e-4,-0.0292 -0.0013,-0.0446 6.58e-4,0.0164 6.58e-4,0.0277 0.0013,0.0446 m -0.0037,-0.11668 c -6.39e-4,-0.0128 -6.39e-4,-0.0321 -0.0013,-0.0451 6.39e-4,0.0164 6.39e-4,0.0285 0.0013,0.0451 m -0.0037,-0.12928 c -6.39e-4,-0.0146 -0.0013,-0.0285 -0.0013,-0.0433 0,0.0128 6.39e-4,0.031 0.0013,0.0433 m -0.0037,-0.12581 c 0,-0.0128 -6.39e-4,-0.0245 -6.39e-4,-0.0373 0,0.0128 6.39e-4,0.0252 6.39e-4,0.0373 m -0.0018,-0.10828 c -6.39e-4,-0.0232 -0.0013,-0.0451 -0.0018,-0.0681 6.57e-4,0.0252 0.0013,0.0433 0.0018,0.0681 m -0.0037,-0.1333 c -6.39e-4,-0.0146 -6.39e-4,-0.0283 -0.0013,-0.0438 0,0.0128 6.58e-4,0.031 0.0013,0.0438 m -0.0037,-0.1165 c -6.58e-4,-0.0206 -6.58e-4,-0.0354 -0.0013,-0.0561 6.39e-4,0.0214 6.39e-4,0.0351 0.0013,0.0561 m -0.0037,-0.12764 c -6.39e-4,-0.0183 -6.39e-4,-0.0347 -0.0013,-0.0528 0,0.0164 6.39e-4,0.0361 0.0013,0.0528 m -0.0037,-0.12034 c -6.58e-4,-0.0206 -6.58e-4,-0.0343 -0.0013,-0.055 6.39e-4,0.0206 6.39e-4,0.0342 0.0013,0.055 m -0.0018,-0.11485 c -6.58e-4,-0.0232 -0.0013,-0.0436 -0.0018,-0.0668 6.39e-4,0.0248 0.0013,0.0418 0.0018,0.0668 m -0.0037,-0.12618 c -6.39e-4,-0.0257 -0.0013,-0.0573 -0.0018,-0.0831 6.57e-4,0.0298 0.0013,0.0533 0.0018,0.0831 m -0.0018,-0.10627 c -6.39e-4,-0.0283 -0.0018,-0.0593 -0.0018,-0.0875 6.39e-4,0.0294 0.0018,0.0579 0.0018,0.0875 m -0.0037,-0.13987 c -6.39e-4,-0.0281 -0.0013,-0.0566 -0.0018,-0.0851 6.39e-4,0.0289 0.0013,0.0553 0.0018,0.0851 m -0.0018,-0.11194 c -6.39e-4,-0.0277 -0.0013,-0.0573 -0.0018,-0.0858 6.39e-4,0.0288 0.0013,0.0566 0.0018,0.0858 m -0.0018,-0.0949 c -6.39e-4,-0.0436 -0.0018,-0.0933 -0.0037,-0.1364 0.0013,0.0411 0.0018,0.0946 0.0037,0.1364 m -0.0037,-0.14791 c -0.437403,-18.31269 -0.0367,-37.67019 0.78009,-56.16061 -0.816811,18.49371 -1.217493,37.84591 -0.78009,56.16061 m 0.78009,-56.16833 c 0.0013,-0.0239 0.0018,-0.0502 0.0037,-0.0741 -6.58e-4,0.0258 -0.0018,0.0484 -0.0037,0.0741 m 0.0073,-0.1386 c 6.39e-4,-0.0146 0.0013,-0.029 0.0018,-0.0451 -6.39e-4,0.0183 -0.0013,0.0283 -0.0018,0.0451 m 0.0073,-0.14425 c 0,-0.002 0,-0.009 6.39e-4,-0.011 l -6.39e-4,0.011 m 0.01096,-0.25446 6.39e-4,-0.005 -6.39e-4,0.005"
       style="fill:#c8c9cb;fill-opacity:1;fill-rule:nonzero;stroke:none;stroke-width:0.0644176"
       id="path5072"
       inkscape:connector-curvature="0" />
    <path
       d="m 63.153151,218.97912 v 0 c 0,0 -6.4e-4,0 0,0 v 0"
       style="fill:#8b8f97;fill-opacity:1;fill-rule:nonzero;stroke:none;stroke-width:0.0644176"
       id="path5074"
       inkscape:connector-curvature="0" />
    <path
       d="m 72.445389,220.36667 v 0 c 6.57e-4,0 0.0013,0 0.0018,0 -6.39e-4,0 -0.0013,0 -0.0018,0 m -0.0073,0 c -3.121693,-0.001 -7.017011,-0.82963 -9.285811,-1.38755 v 0 c 2.268142,0.55715 6.164776,1.38627 9.285811,1.38755"
       style="fill:#1b1826;fill-opacity:1;fill-rule:nonzero;stroke:none;stroke-width:0.0644176"
       id="path5076"
       inkscape:connector-curvature="0" />
    <path
       d="m 72.445389,220.36667 c -0.0018,0 -0.0037,0 -0.0073,0 -3.121035,-0.001 -7.017669,-0.8304 -9.285811,-1.38755 -6.39e-4,0 0,0 0,0 -1.149857,-0.28279 -1.881631,-0.49543 -1.881631,-0.49543 v 0 c -0.0013,-0.0385 -0.0018,-0.0805 -0.0037,-0.11851 l -6.57e-4,-0.007 c -6.39e-4,-0.0411 -0.0018,-0.0765 -0.0037,-0.11704 v -0.004 c -0.0013,-0.0385 -0.0018,-0.0778 -0.0037,-0.1165 0,-0.004 -6.39e-4,-0.011 -6.39e-4,-0.0164 -6.39e-4,-0.0352 -0.0018,-0.0694 -0.0018,-0.10536 -6.39e-4,-0.004 -6.39e-4,-0.007 -6.39e-4,-0.011 -6.39e-4,-0.0331 -0.0018,-0.0723 -0.0018,-0.10518 -6.58e-4,-0.009 -6.58e-4,-0.0194 -0.0013,-0.0278 -6.39e-4,-0.0309 -0.0013,-0.0657 -0.0018,-0.0966 0,-0.009 0,-0.011 -6.39e-4,-0.0199 -6.57e-4,-0.0354 -0.0018,-0.0688 -0.0018,-0.10481 0,-0.009 -6.57e-4,-0.0183 -6.57e-4,-0.0265 -0.0013,-0.0303 -0.0018,-0.0606 -0.0018,-0.0908 0,-0.009 -6.39e-4,-0.0226 -6.39e-4,-0.0309 -0.0013,-0.0278 -0.0018,-0.0593 -0.0018,-0.0876 -6.39e-4,-0.0164 -6.39e-4,-0.0276 -0.0013,-0.0446 -6.39e-4,-0.0256 -0.0013,-0.0464 -0.0018,-0.0721 -6.39e-4,-0.0164 -6.39e-4,-0.0281 -0.0013,-0.0451 -6.39e-4,-0.0285 -0.0013,-0.0561 -0.0018,-0.0844 -6.39e-4,-0.0128 -0.0013,-0.0309 -0.0013,-0.0433 -6.58e-4,-0.0285 -0.0013,-0.054 -0.0018,-0.0825 0,-0.0128 -6.39e-4,-0.025 -6.39e-4,-0.0373 -6.39e-4,-0.0232 -0.0013,-0.0475 -0.0018,-0.071 -6.39e-4,-0.0248 -0.0013,-0.0431 -0.0018,-0.0681 -6.39e-4,-0.0199 -0.0013,-0.0451 -0.0013,-0.0652 -6.39e-4,-0.0128 -0.0013,-0.0307 -0.0013,-0.0438 -6.39e-4,-0.0223 -0.0013,-0.0495 -0.0018,-0.0727 -6.57e-4,-0.0212 -6.57e-4,-0.0347 -0.0013,-0.0561 -6.39e-4,-0.0232 -0.0013,-0.0484 -0.0018,-0.0714 -6.39e-4,-0.0164 -0.0013,-0.036 -0.0013,-0.0528 -6.57e-4,-0.0206 -0.0013,-0.0471 -0.0018,-0.0674 -6.57e-4,-0.0206 -6.57e-4,-0.0343 -0.0013,-0.055 -6.39e-4,-0.0183 -0.0013,-0.0418 -0.0013,-0.0599 -6.58e-4,-0.0252 -0.0013,-0.042 -0.0018,-0.0668 -6.4e-4,-0.0206 -6.4e-4,-0.0387 -0.0013,-0.0593 -6.39e-4,-0.0298 -0.0013,-0.0535 -0.0018,-0.0831 -6.39e-4,-0.009 -6.39e-4,-0.0128 -6.39e-4,-0.0232 -6.39e-4,-0.0298 -0.0018,-0.0581 -0.0018,-0.0875 0,-0.0183 -6.39e-4,-0.0343 -0.0013,-0.0524 -6.4e-4,-0.0298 -0.0013,-0.0561 -0.0018,-0.0851 0,-0.007 -6.57e-4,-0.0194 -6.57e-4,-0.0268 -6.39e-4,-0.0292 -0.0013,-0.0568 -0.0018,-0.0858 0,-0.005 0,-0.004 -6.57e-4,-0.009 -6.39e-4,-0.0418 -0.0018,-0.0953 -0.0037,-0.1364 0,-0.005 0,-0.007 0,-0.011 -0.437403,-18.3147 -0.0367,-37.66691 0.78009,-56.16061 0,-0.002 0,-0.005 0,-0.007 0.0013,-0.0257 0.0018,-0.0484 0.0037,-0.0741 0.0013,-0.0206 0.0018,-0.0438 0.0037,-0.0645 6.39e-4,-0.0164 0.0013,-0.0278 0.0018,-0.0451 0.0013,-0.0334 0.0018,-0.0657 0.0037,-0.0992 l 6.39e-4,-0.0109 c 0.0037,-0.0831 0.0073,-0.15978 0.01096,-0.24286 l 6.39e-4,-0.005 c 1.021014,-22.87341 2.672677,-44.38502 4.154283,-60.908767 6.703942,4.288917 14.196994,7.017647 21.992816,8.917327 -0.16361,2.03108 -0.470891,5.60304 -0.941783,10.17991 -0.852254,8.27959 -2.238506,19.8432 -4.280552,31.52211 -4.084073,23.36426 -3.718834,54.71629 -6.441763,70.8587 v 0 c -0.847086,0.67968 -2.324821,0.92904 -4.035117,0.92955 -6.39e-4,0 -0.0013,0 -0.0018,0"
       style="fill:#4c7ba2;fill-opacity:1;fill-rule:nonzero;stroke:none;stroke-width:0.0644176"
       id="path5078"
       inkscape:connector-curvature="0" />
    <path
       d="m 62.912227,13.2377 c 0,0 -4.600049,-0.421291 -6.049445,9.885524 -1.449399,10.306815 -3.542971,36.395941 -3.542971,36.395941 l 11.809685,5.098659 c 0,0 6.06619,-20.236797 6.71037,-22.652463 C 72.484045,39.54971 62.912227,13.2377 62.912227,13.2377"
       style="fill:#f1bfa1;fill-opacity:1;fill-rule:nonzero;stroke:none;stroke-width:0.0644176"
       id="path5080"
       inkscape:connector-curvature="0" />
    <path
       d="m 67.985121,74.23343 c 0,0 3.231838,10.17862 12.602649,18.579967 l 8.885768,-13.894881 5.170166,16.964386 c 0,0 21.003356,-10.986429 21.811786,-18.579966 C 117.26264,69.70938 67.985121,74.23343 67.985121,74.23343"
       style="fill:#fcd0b0;fill-opacity:1;fill-rule:nonzero;stroke:none;stroke-width:0.0644176"
       id="path5082"
       inkscape:connector-curvature="0" />
    <path
       d="M 66.631061,70.454703 C 65.327253,53.709986 62.912227,13.2377 62.912227,13.2377 l 15.744957,-2.993486 c 3.587417,3.946222 6.075228,6.291666 11.514639,6.861119 6.744534,0.706016 14.003747,-1.967315 17.028147,-7.1310292 6.37347,1.4964212 7.72819,2.0794002 10.51037,2.9561242 3.40062,1.072553 2.4962,65.392225 -1.20847,69.527189 -3.7053,4.133686 -48.558619,1.654895 -51.183637,-6.622118 -0.370406,-1.053225 1.578878,-1.960222 1.312828,-5.380796"
       style="fill:#468582;fill-opacity:1;fill-rule:nonzero;stroke:none;stroke-width:0.0644176"
       id="path5084"
       inkscape:connector-curvature="0" />
    <path
       d="m 66.656187,71.085334 c 0,-0.200332 -0.0073,-0.410323 -0.0252,-0.630631 -0.191968,-2.463343 -0.407766,-5.440726 -0.636437,-8.726668 v -6.4e-4 c 0.228671,3.287239 0.444469,6.263326 0.636437,8.727308 0.01826,0.220308 0.0252,0.430299 0.0252,0.630631"
       style="fill:#cdcccc;fill-opacity:1;fill-rule:nonzero;stroke:none;stroke-width:0.0644176"
       id="path5086"
       inkscape:connector-curvature="0" />
    <path
       d="m 65.994624,61.728035 c -0.08381,-1.202666 -0.169454,-2.44658 -0.255751,-3.722049 v 0 c 0.08637,1.27419 0.17201,2.520662 0.255751,3.721409 v 6.4e-4"
       style="fill:#c19a88;fill-opacity:1;fill-rule:nonzero;stroke:none;stroke-width:0.0644176"
       id="path5088"
       inkscape:connector-curvature="0" />
    <path
       d="m 117.71034,12.930428 c -1.05773,-0.333683 -1.90869,-0.624207 -2.90845,-0.939208 v 0 c 0.99912,0.314357 1.85072,0.605525 2.90845,0.939208"
       style="fill:#cdcccc;fill-opacity:1;fill-rule:nonzero;stroke:none;stroke-width:0.0644176"
       id="path5090"
       inkscape:connector-curvature="0" />
    <path
       d="m 103.11075,84.421071 c -5.052279,0 -10.908476,-0.351069 -16.488326,-1.044204 -6.253027,-0.776876 -12.15367,-1.982134 -16.173339,-3.601586 -2.774459,-1.117647 -4.652876,-2.43305 -5.130852,-3.939782 -0.03214,-0.09276 -0.04693,-0.184245 -0.04693,-0.276349 0.0018,-0.888317 1.384335,-1.839778 1.384974,-4.473816 0,-0.200332 -0.0073,-0.410323 -0.0252,-0.630631 -0.191969,-2.463982 -0.407767,-5.440069 -0.636438,-8.727308 -0.08381,-1.200747 -0.169454,-2.447219 -0.255751,-3.721409 1.193024,-0.311134 2.382816,-0.649329 3.566801,-1.034544 20.78564,-6.764492 38.325261,-23.257966 45.496221,-44.980222 0.99976,0.315001 1.85072,0.605525 2.90845,0.939208 v 0 c 1.45133,0.457365 2.1187,12.433884 2.1187,26.335844 0,14.462394 -0.72211,31.009993 -2.0343,38.838008 -0.68026,-0.923103 -3.37292,-4.485394 -4.5189,-4.649022 -0.0146,-0.0018 -0.0309,-0.0037 -0.0489,-0.0037 -0.61261,0 -3.33232,1.137622 -5.58178,2.274588 -2.24883,1.137604 -4.0261,2.275227 -2.75385,2.275227 0.88251,0 3.23182,-0.546908 7.90982,-2.020773 0,0 -7.63928,3.343918 -5.30735,3.343918 0.70473,0 2.31967,-0.305345 5.33184,-1.100262 0,0 -8.86128,2.768031 -6.31164,2.768031 0.84387,0 2.93681,-0.302771 7.01573,-1.109922 0,0 -6.18022,3.893401 -3.59901,3.893401 0.81809,0 2.51743,-0.391661 5.57534,-1.422992 0,0 0.027,0.273774 0.10755,0.689922 -2.0633,0.923742 -6.76385,1.377889 -12.5028,1.377889"
       style="fill:#3d6d6d;fill-opacity:1;fill-rule:nonzero;stroke:none;stroke-width:0.0644176"
       id="path5092"
       inkscape:connector-curvature="0" />
    <path
       d="m 76.344597,10.443908 9.151799,13.074196 2.614719,-6.63759 1.904822,0.285371 -1.402376,-3.906284 -9.55376,-6.7374356 -2.715204,3.9217426"
       style="fill:#fcd0b0;fill-opacity:1;fill-rule:nonzero;stroke:none;stroke-width:0.0644176"
       id="path5094"
       inkscape:connector-curvature="0" />
    <path
       d="m 92.535959,17.283124 1.407525,-3.821895 13.073536,-7.6431477 2.31325,4.3243527 -13.375673,14.381228 -1.004908,-7.341673 -2.41373,0.101142"
       style="fill:#fcd0b0;fill-opacity:1;fill-rule:nonzero;stroke:none;stroke-width:0.0644176"
       id="path5096"
       inkscape:connector-curvature="0" />
    <path
       d="m 88.574265,13.231903 -0.46315,3.648611 1.904822,0.285371 -1.402376,-3.906284 -0.03926,-0.0277"
       style="fill:#f1bfa1;fill-opacity:1;fill-rule:nonzero;stroke:none;stroke-width:0.0644176"
       id="path5098"
       inkscape:connector-curvature="0" />
    <path
       d="m 92.535959,17.283124 2.41373,-0.101143 -1.019736,-3.683397 z"
       style="fill:#f1bfa1;fill-opacity:1;fill-rule:nonzero;stroke:none;stroke-width:0.0644176"
       id="path5100"
       inkscape:connector-curvature="0" />
    <path
       d="m 49.897948,30.132502 c 0,0 2.300997,-7.503362 -8.55981,-16.217774 l -1.645869,4.42549 10.205679,11.792284"
       style="fill:#ffffff;fill-opacity:1;fill-rule:nonzero;stroke:none;stroke-width:0.0644176"
       id="path5102"
       inkscape:connector-curvature="0" />
    <path
       d="m 49.354264,28.556847 c 0,0 -2.420813,-9.29095 -10.131599,-12.83456 l -2.090351,2.82922 12.22195,10.00534"
       style="fill:#fde3e9;fill-opacity:1;fill-rule:nonzero;stroke:none;stroke-width:0.0644176"
       id="path5104"
       inkscape:connector-curvature="0" />
    <path
       d="m 49.20095,29.856794 c 0,0 -2.134799,-7.809989 13.171472,-14.769022 l 1.638771,4.650951 -14.810243,10.118071"
       style="fill:#ffffff;fill-opacity:1;fill-rule:nonzero;stroke:none;stroke-width:0.0644176"
       id="path5106"
       inkscape:connector-curvature="0" />
    <path
       d="m 67.4904,18.171443 -1.669065,-2.613422 c 0,0 -15.064701,4.816504 -16.467071,12.998826 L 67.4904,18.171443"
       style="fill:#fde3e9;fill-opacity:1;fill-rule:nonzero;stroke:none;stroke-width:0.0644176"
       id="path5108"
       inkscape:connector-curvature="0" />
    <path
       d="m 37.406088,17.506653 11.452805,8.543061 18.539385,-9.569233 8.934066,20.483507 -16.720868,8.564321 -2.720354,-0.726624 -7.727534,2.22304 -11.7575,-29.518072"
       style="fill:#704e61;fill-opacity:1;fill-rule:nonzero;stroke:none;stroke-width:0.0644176"
       id="path5110"
       inkscape:connector-curvature="0" />
    <path
       d="m 50.301202,46.546748 -12.895114,-29.040095 11.452805,8.543061 10.752583,19.478595 -2.720354,-0.726624 -6.58992,1.745063"
       style="fill:#4d3b4d;fill-opacity:1;fill-rule:nonzero;stroke:none;stroke-width:0.0644176"
       id="path5112"
       inkscape:connector-curvature="0" />
    <path
       d="m 47.991187,25.407472 1.922866,0.152015 9.697423,19.968822 -2.454962,-0.07468 -9.165327,-20.046127"
       style="fill:#8f5777;fill-opacity:1;fill-rule:nonzero;stroke:none;stroke-width:0.0644176"
       id="path5114"
       inkscape:connector-curvature="0" />
    <path
       d="m 37.747503,22.046161 c -0.578471,1.022951 11.407067,41.523588 15.149084,45.275911 3.742016,3.752963 8.950181,1.801104 10.487189,-2.37637 1.538286,-4.176834 -19.565559,-39.889306 -19.565559,-39.889306 0,0 11.917259,-9.018463 -1.073198,-1.582096 0,0 13.312547,-10.335803 -1.384978,-0.997184 0,0 13.409165,-13.2036752 -1.231021,-1.131818 0,0 8.520515,-15.2927369 -2.381517,0.700863"
       style="fill:#f57d6e;fill-opacity:1;fill-rule:nonzero;stroke:none;stroke-width:0.0644176"
       id="path5116"
       inkscape:connector-curvature="0" />
    <path
       d="m 52.99257,38.021725 c 5.314459,8.869007 13.067114,24.617178 12.136926,26.596099 -2.018855,4.292786 -8.421961,6.45785 -12.839723,2.784118 C 50.115679,65.593735 44.155764,50.425341 41.5636,42.127055 c 3.866988,-1.220067 7.681154,-2.577989 11.42897,-4.10533"
       style="fill:#fcd0b0;fill-opacity:1;fill-rule:nonzero;stroke:none;stroke-width:0.0644176"
       id="path5118"
       inkscape:connector-curvature="0" />
    <path
       d="m 41.973296,46.236893 c 0,0 10.418901,-2.621786 12.829409,-5.315732 l -2.906523,-5.882615 -12.261888,4.252205 2.339002,6.946142"
       style="fill:#fde8d3;fill-opacity:1;fill-rule:nonzero;stroke:none;stroke-width:0.0644176"
       id="path5120"
       inkscape:connector-curvature="0" />
    <path
       d="m 138.32204,55.563277 -1.70449,0.830342 -18.66435,21.927756 c 0,0 -3.36002,-4.678002 -4.67736,-4.866117 -0.49795,-0.0714 -3.31428,1.100262 -5.63074,2.271374 -3.80836,1.926076 -6.2659,3.852809 5.15598,0.254455 0,0 -12.954378,5.670036 0.0245,2.243655 0,0 -15.697924,4.90282 0.70409,1.658109 0,0 -10.72232,6.753536 1.97632,2.470409 0,0 0.49409,4.940837 3.46181,4.73857 4.62647,-0.315644 31.34559,-19.294356 30.26145,-23.34494 -1.08286,-4.050584 -10.9072,-8.183613 -10.9072,-8.183613"
       style="fill:#f57d6e;fill-opacity:1;fill-rule:nonzero;stroke:none;stroke-width:0.0644176"
       id="path5122"
       inkscape:connector-curvature="0" />
    <path
       d="m 130.65121,80.851695 c -0.0146,-0.01461 -0.0283,-0.03086 -0.0426,-0.04638 8.76852,-5.90194 18.95167,-14.213738 18.64632,-16.922497 0.30535,2.706823 -9.84429,11.061789 -18.60379,16.968877 m -6.94359,-9.291599 v 0 L 136.61753,56.393619 123.7076,71.560096 m 25.54738,-7.677278 c -10e-4,-0.0091 -0.002,-0.01643 -0.004,-0.0252 0.001,0.0091 0.002,0.01643 0.004,0.0252 m -0.004,-0.02575 c -6.6e-4,-0.0018 -6.6e-4,-0.0037 -6.6e-4,-0.0055 0,0.0018 0,0.0037 6.6e-4,0.0055 m -0.001,-0.0073 c 0,-0.0013 -6.4e-4,-0.0037 -6.4e-4,-0.0055 6.4e-4,0.0018 6.4e-4,0.0037 6.4e-4,0.0055 m -6.4e-4,-0.0073 c -10e-4,-0.0037 -0.002,-0.01096 -0.002,-0.01461 6.4e-4,0.0055 0.001,0.0091 0.002,0.01461 m -0.004,-0.01826 c 0,-0.0013 -6.4e-4,-0.0018 -6.4e-4,-0.0037 0,0.0018 6.4e-4,0.0018 6.4e-4,0.0037 m -0.001,-0.0073 c 0,-0.0013 -6.3e-4,-0.0018 -6.3e-4,-0.0037 0,0.0013 6.3e-4,0.0018 6.3e-4,0.0037 m -0.001,-0.0073 c 0,-0.0013 -6.4e-4,-0.0037 -10e-4,-0.0055 6.4e-4,0.0018 10e-4,0.0037 10e-4,0.0055 m -0.002,-0.0091 c 0,-0.0013 -6.4e-4,-0.0018 -6.4e-4,-0.0037 0,0.0013 6.4e-4,0.0018 6.4e-4,0.0037 m -0.001,-0.0073 c -6.4e-4,-0.0013 -6.4e-4,-0.0018 -6.4e-4,-0.0037 0,0.0013 0,0.0018 6.4e-4,0.0037 m -0.002,-0.0073 c 0,-0.0013 0,-0.0018 -6.4e-4,-0.0037 6.4e-4,0.0013 6.4e-4,0.0018 6.4e-4,0.0037 m -0.001,-0.0073 c -6.4e-4,-6.39e-4 -6.4e-4,-0.0018 -6.4e-4,-0.0037 0,0.0013 0,0.0018 6.4e-4,0.0037 m -0.002,-0.0091 c -6.6e-4,-6.39e-4 -6.6e-4,-0.0013 -6.6e-4,-0.0018 0,0.0013 0,0.0018 6.6e-4,0.0018 m -0.002,-0.0073 c 0,-6.39e-4 -6.4e-4,-0.0013 -6.4e-4,-0.0018 0,0.0013 6.4e-4,0.0018 6.4e-4,0.0018 m -0.002,-0.0073 c 0,-6.39e-4 0,-0.0013 -6.4e-4,-0.0018 0,6.39e-4 6.4e-4,0.0013 6.4e-4,0.0018"
       style="fill:#e4acae;fill-opacity:1;fill-rule:nonzero;stroke:none;stroke-width:0.0644176"
       id="path5124"
       inkscape:connector-curvature="0" />
    <path
       d="m 130.60868,80.805315 c -2.59732,-2.83888 -4.8951,-5.94381 -6.90106,-9.245219 l 12.90993,-15.166477 1.70449,-0.830342 c 0,0 9.82434,4.133029 10.9072,8.183613 6.3e-4,0.0018 0.001,0.0037 0.002,0.0073 6.4e-4,6.39e-4 6.4e-4,0.0013 6.4e-4,0.0018 6.4e-4,0.0018 6.4e-4,0.0037 0.001,0.0037 0,0.0013 6.4e-4,0.0018 6.4e-4,0.0018 0,0.0018 6.4e-4,0.0037 0.001,0.0037 0,0.0013 0,0.0018 6.6e-4,0.0018 0,0.0018 6.4e-4,0.0037 10e-4,0.0055 0,0.0013 0,0.0018 6.4e-4,0.0037 0,0.0018 6.6e-4,0.0037 6.6e-4,0.0037 6.4e-4,0.0013 6.4e-4,0.0018 6.4e-4,0.0037 6.3e-4,0.0013 6.3e-4,0.0018 0.001,0.0037 0,6.39e-4 0,0.0018 6.4e-4,0.0037 0,0.0013 6.4e-4,0.0018 6.4e-4,0.0037 0,0.0013 6.4e-4,0.0018 6.4e-4,0.0037 0,0.0013 6.6e-4,0.0037 6.6e-4,0.0037 6.4e-4,0.0018 0.001,0.0037 0.001,0.0055 0,0.0013 6.5e-4,0.0018 6.5e-4,0.0037 0,0.0013 6.4e-4,0.0018 6.4e-4,0.0037 0,0.0013 6.4e-4,0.0018 6.4e-4,0.0037 0,0.0013 6.4e-4,0.0018 6.4e-4,0.0037 0,0.0013 6.6e-4,0.0018 6.6e-4,0.0037 6.4e-4,0.0037 0.001,0.01096 0.002,0.01461 0,6.58e-4 0,0.0013 0,0.0018 0,0.0018 6.4e-4,0.0037 6.4e-4,0.0055 0,6.57e-4 6.4e-4,0.0013 6.4e-4,0.0018 0,0.0018 0,0.0037 6.6e-4,0.0055 0,0 0,0 0,6.39e-4 0.001,0.0091 0.002,0.01643 0.004,0.0252 v 0 c 0.30535,2.708758 -9.8778,11.020557 -18.64632,16.922496"
       style="fill:#f5746a;fill-opacity:1;fill-rule:nonzero;stroke:none;stroke-width:0.0644176"
       id="path5126"
       inkscape:connector-curvature="0" />
    <path
       d="m 136.26133,48.141093 c 0,0 19.66347,5.143086 18.19669,8.780115 -5.63849,13.978603 -20.16272,22.08492 -20.16272,22.08492 l -8.14044,-10.366717 10.43177,-13.460052 -0.3253,-7.038266"
       style="fill:#fcd0b0;fill-opacity:1;fill-rule:nonzero;stroke:none;stroke-width:0.0644176"
       id="path5128"
       inkscape:connector-curvature="0" />
    <path
       d="m 124.34086,66.605747 9.87715,13.742207 7.7301,-4.723743 -12.45385,-13.742846 -5.1534,4.724382"
       style="fill:#fde8d3;fill-opacity:1;fill-rule:nonzero;stroke:none;stroke-width:0.0644176"
       id="path5130"
       inkscape:connector-curvature="0" />
    <path
       d="m 134.05438,20.90275 c -5.19013,-6.859186 -11.18161,-8.59975 -15.73207,-8.925059 -1.9628,0.320156 -4.51116,1.326359 -5.28676,4.334016 -1.20589,4.671564 0.90894,10.451754 6.69944,18.211497 1.82688,1.746362 21.42337,29.617922 23.8358,33.084237 7.60514,-2.875601 6.67431,-5.965065 10.88723,-10.686233 -3.66601,-15.26247 -19.43609,-34.739769 -20.40364,-36.018458"
       style="fill:#fcd0b0;fill-opacity:1;fill-rule:nonzero;stroke:none;stroke-width:0.0644176"
       id="path5132"
       inkscape:connector-curvature="0" />
  </g>
</svg>
